<?xml version="1.0" encoding="utf-8" standalone="no"?>
<!DOCTYPE svg PUBLIC "-//W3C//DTD SVG 1.1//EN"
  "http://www.w3.org/Graphics/SVG/1.1/DTD/svg11.dtd">
<svg xmlns:xlink="http://www.w3.org/1999/xlink" width="357.88125pt" height="214.875469pt" viewBox="0 0 357.88125 214.875469" xmlns="http://www.w3.org/2000/svg" version="1.1">
 <metadata>
  <rdf:RDF xmlns:dc="http://purl.org/dc/elements/1.1/" xmlns:cc="http://creativecommons.org/ns#" xmlns:rdf="http://www.w3.org/1999/02/22-rdf-syntax-ns#">
   <cc:Work>
    <dc:type rdf:resource="http://purl.org/dc/dcmitype/StillImage"/>
    <dc:date>2025-06-06T13:59:06.060980</dc:date>
    <dc:format>image/svg+xml</dc:format>
    <dc:creator>
     <cc:Agent>
      <dc:title>Matplotlib v3.9.2, https://matplotlib.org/</dc:title>
     </cc:Agent>
    </dc:creator>
   </cc:Work>
  </rdf:RDF>
 </metadata>
 <defs>
  <style type="text/css">*{stroke-linejoin: round; stroke-linecap: butt}</style>
 </defs>
 <g id="figure_1">
  <g id="patch_1">
   <path d="M 0 214.875469 
L 357.88125 214.875469 
L 357.88125 0 
L 0 0 
z
" style="fill: #ffffff"/>
  </g>
  <g id="axes_1">
   <g id="patch_2">
    <path d="M 43.78125 177.319219 
L 350.68125 177.319219 
L 350.68125 10.999219 
L 43.78125 10.999219 
z
" style="fill: #ffffff"/>
   </g>
   <g id="matplotlib.axis_1">
    <g id="xtick_1">
     <g id="line2d_1">
      <path d="M 196.047895 177.319219 
L 196.047895 10.999219 
" clip-path="url(#pa6518b6e30)" style="fill: none; stroke: #b0b0b0; stroke-width: 0.8; stroke-linecap: square"/>
     </g>
     <g id="line2d_2">
      <defs>
       <path id="m920c0f1100" d="M 0 0 
L 0 3.5 
" style="stroke: #000000; stroke-width: 0.8"/>
      </defs>
      <g>
       <use xlink:href="#m920c0f1100" x="196.047895" y="177.319219" style="stroke: #000000; stroke-width: 0.8"/>
      </g>
     </g>
     <g id="text_1">
      <text style="font: 10px 'DejaVu Sans', 'Bitstream Vera Sans', 'Computer Modern Sans Serif', 'Lucida Grande', 'Verdana', 'Geneva', 'Lucid', 'Arial', 'Helvetica', 'Avant Garde', sans-serif; text-anchor: middle" x="196.047895" y="191.917656" transform="rotate(-0 196.047895 191.917656)">0.1</text>
     </g>
    </g>
    <g id="xtick_2">
     <g id="line2d_3">
      <path d="M 244.570783 177.319219 
L 244.570783 10.999219 
" clip-path="url(#pa6518b6e30)" style="fill: none; stroke: #b0b0b0; stroke-width: 0.8; stroke-linecap: square"/>
     </g>
     <g id="line2d_4">
      <g>
       <use xlink:href="#m920c0f1100" x="244.570783" y="177.319219" style="stroke: #000000; stroke-width: 0.8"/>
      </g>
     </g>
     <g id="text_2">
      <text style="font: 10px 'DejaVu Sans', 'Bitstream Vera Sans', 'Computer Modern Sans Serif', 'Lucida Grande', 'Verdana', 'Geneva', 'Lucid', 'Arial', 'Helvetica', 'Avant Garde', sans-serif; text-anchor: middle" x="244.570783" y="191.917656" transform="rotate(-0 244.570783 191.917656)">0.2</text>
     </g>
    </g>
    <g id="xtick_3">
     <g id="line2d_5">
      <path d="M 272.954852 177.319219 
L 272.954852 10.999219 
" clip-path="url(#pa6518b6e30)" style="fill: none; stroke: #b0b0b0; stroke-width: 0.8; stroke-linecap: square"/>
     </g>
     <g id="line2d_6">
      <g>
       <use xlink:href="#m920c0f1100" x="272.954852" y="177.319219" style="stroke: #000000; stroke-width: 0.8"/>
      </g>
     </g>
     <g id="text_3">
      <text style="font: 10px 'DejaVu Sans', 'Bitstream Vera Sans', 'Computer Modern Sans Serif', 'Lucida Grande', 'Verdana', 'Geneva', 'Lucid', 'Arial', 'Helvetica', 'Avant Garde', sans-serif; text-anchor: middle" x="272.954852" y="191.917656" transform="rotate(-0 272.954852 191.917656)">0.3</text>
     </g>
    </g>
    <g id="xtick_4">
     <g id="line2d_7">
      <path d="M 293.09367 177.319219 
L 293.09367 10.999219 
" clip-path="url(#pa6518b6e30)" style="fill: none; stroke: #b0b0b0; stroke-width: 0.8; stroke-linecap: square"/>
     </g>
     <g id="line2d_8">
      <g>
       <use xlink:href="#m920c0f1100" x="293.09367" y="177.319219" style="stroke: #000000; stroke-width: 0.8"/>
      </g>
     </g>
     <g id="text_4">
      <text style="font: 10px 'DejaVu Sans', 'Bitstream Vera Sans', 'Computer Modern Sans Serif', 'Lucida Grande', 'Verdana', 'Geneva', 'Lucid', 'Arial', 'Helvetica', 'Avant Garde', sans-serif; text-anchor: middle" x="293.09367" y="191.917656" transform="rotate(-0 293.09367 191.917656)">0.4</text>
     </g>
    </g>
    <g id="xtick_5">
     <g id="line2d_9">
      <path d="M 308.71455 177.319219 
L 308.71455 10.999219 
" clip-path="url(#pa6518b6e30)" style="fill: none; stroke: #b0b0b0; stroke-width: 0.8; stroke-linecap: square"/>
     </g>
     <g id="line2d_10">
      <g>
       <use xlink:href="#m920c0f1100" x="308.71455" y="177.319219" style="stroke: #000000; stroke-width: 0.8"/>
      </g>
     </g>
     <g id="text_5">
      <text style="font: 10px 'DejaVu Sans', 'Bitstream Vera Sans', 'Computer Modern Sans Serif', 'Lucida Grande', 'Verdana', 'Geneva', 'Lucid', 'Arial', 'Helvetica', 'Avant Garde', sans-serif; text-anchor: middle" x="308.71455" y="191.917656" transform="rotate(-0 308.71455 191.917656)">0.5</text>
     </g>
    </g>
    <g id="xtick_6">
     <g id="line2d_11">
      <path d="M 321.477739 177.319219 
L 321.477739 10.999219 
" clip-path="url(#pa6518b6e30)" style="fill: none; stroke: #b0b0b0; stroke-width: 0.8; stroke-linecap: square"/>
     </g>
     <g id="line2d_12">
      <g>
       <use xlink:href="#m920c0f1100" x="321.477739" y="177.319219" style="stroke: #000000; stroke-width: 0.8"/>
      </g>
     </g>
     <g id="text_6">
      <text style="font: 10px 'DejaVu Sans', 'Bitstream Vera Sans', 'Computer Modern Sans Serif', 'Lucida Grande', 'Verdana', 'Geneva', 'Lucid', 'Arial', 'Helvetica', 'Avant Garde', sans-serif; text-anchor: middle" x="321.477739" y="191.917656" transform="rotate(-0 321.477739 191.917656)">0.6</text>
     </g>
    </g>
    <g id="xtick_7">
     <g id="line2d_13">
      <path d="M 341.616557 177.319219 
L 341.616557 10.999219 
" clip-path="url(#pa6518b6e30)" style="fill: none; stroke: #b0b0b0; stroke-width: 0.8; stroke-linecap: square"/>
     </g>
     <g id="line2d_14">
      <g>
       <use xlink:href="#m920c0f1100" x="341.616557" y="177.319219" style="stroke: #000000; stroke-width: 0.8"/>
      </g>
     </g>
     <g id="text_7">
      <text style="font: 10px 'DejaVu Sans', 'Bitstream Vera Sans', 'Computer Modern Sans Serif', 'Lucida Grande', 'Verdana', 'Geneva', 'Lucid', 'Arial', 'Helvetica', 'Avant Garde', sans-serif; text-anchor: middle" x="341.616557" y="191.917656" transform="rotate(-0 341.616557 191.917656)">0.8</text>
     </g>
    </g>
    <g id="xtick_8">
     <g id="line2d_15">
      <defs>
       <path id="m17b11bba8c" d="M 0 0 
L 0 2 
" style="stroke: #000000; stroke-width: 0.6"/>
      </defs>
      <g>
       <use xlink:href="#m17b11bba8c" x="83.381241" y="177.319219" style="stroke: #000000; stroke-width: 0.6"/>
      </g>
     </g>
    </g>
    <g id="xtick_9">
     <g id="line2d_16">
      <g>
       <use xlink:href="#m17b11bba8c" x="111.76531" y="177.319219" style="stroke: #000000; stroke-width: 0.6"/>
      </g>
     </g>
    </g>
    <g id="xtick_10">
     <g id="line2d_17">
      <g>
       <use xlink:href="#m17b11bba8c" x="131.904128" y="177.319219" style="stroke: #000000; stroke-width: 0.6"/>
      </g>
     </g>
    </g>
    <g id="xtick_11">
     <g id="line2d_18">
      <g>
       <use xlink:href="#m17b11bba8c" x="147.525008" y="177.319219" style="stroke: #000000; stroke-width: 0.6"/>
      </g>
     </g>
    </g>
    <g id="xtick_12">
     <g id="line2d_19">
      <g>
       <use xlink:href="#m17b11bba8c" x="160.288197" y="177.319219" style="stroke: #000000; stroke-width: 0.6"/>
      </g>
     </g>
    </g>
    <g id="xtick_13">
     <g id="line2d_20">
      <g>
       <use xlink:href="#m17b11bba8c" x="171.079319" y="177.319219" style="stroke: #000000; stroke-width: 0.6"/>
      </g>
     </g>
    </g>
    <g id="xtick_14">
     <g id="line2d_21">
      <g>
       <use xlink:href="#m17b11bba8c" x="180.427015" y="177.319219" style="stroke: #000000; stroke-width: 0.6"/>
      </g>
     </g>
    </g>
    <g id="xtick_15">
     <g id="line2d_22">
      <g>
       <use xlink:href="#m17b11bba8c" x="188.672267" y="177.319219" style="stroke: #000000; stroke-width: 0.6"/>
      </g>
     </g>
    </g>
    <g id="xtick_16">
     <g id="line2d_23">
      <g>
       <use xlink:href="#m17b11bba8c" x="332.268861" y="177.319219" style="stroke: #000000; stroke-width: 0.6"/>
      </g>
     </g>
    </g>
    <g id="xtick_17">
     <g id="line2d_24">
      <g>
       <use xlink:href="#m17b11bba8c" x="349.861808" y="177.319219" style="stroke: #000000; stroke-width: 0.6"/>
      </g>
     </g>
    </g>
    <g id="text_8">
     <text style="font: 10px 'DejaVu Sans', 'Bitstream Vera Sans', 'Computer Modern Sans Serif', 'Lucida Grande', 'Verdana', 'Geneva', 'Lucid', 'Arial', 'Helvetica', 'Avant Garde', sans-serif; text-anchor: middle" x="197.23125" y="205.595781" transform="rotate(-0 197.23125 205.595781)">block size, us</text>
    </g>
   </g>
   <g id="matplotlib.axis_2">
    <g id="ytick_1">
     <g id="line2d_25">
      <path d="M 43.78125 177.319219 
L 350.68125 177.319219 
" clip-path="url(#pa6518b6e30)" style="fill: none; stroke: #b0b0b0; stroke-width: 0.8; stroke-linecap: square"/>
     </g>
     <g id="line2d_26">
      <defs>
       <path id="m57667ea170" d="M 0 0 
L -3.5 0 
" style="stroke: #000000; stroke-width: 0.8"/>
      </defs>
      <g>
       <use xlink:href="#m57667ea170" x="43.78125" y="177.319219" style="stroke: #000000; stroke-width: 0.8"/>
      </g>
     </g>
     <g id="text_9">
      <text style="font: 10px 'DejaVu Sans', 'Bitstream Vera Sans', 'Computer Modern Sans Serif', 'Lucida Grande', 'Verdana', 'Geneva', 'Lucid', 'Arial', 'Helvetica', 'Avant Garde', sans-serif; text-anchor: end" x="36.78125" y="181.118438" transform="rotate(-0 36.78125 181.118438)">0.0</text>
     </g>
    </g>
    <g id="ytick_2">
     <g id="line2d_27">
      <path d="M 43.78125 153.559219 
L 350.68125 153.559219 
" clip-path="url(#pa6518b6e30)" style="fill: none; stroke: #b0b0b0; stroke-width: 0.8; stroke-linecap: square"/>
     </g>
     <g id="line2d_28">
      <g>
       <use xlink:href="#m57667ea170" x="43.78125" y="153.559219" style="stroke: #000000; stroke-width: 0.8"/>
      </g>
     </g>
     <g id="text_10">
      <text style="font: 10px 'DejaVu Sans', 'Bitstream Vera Sans', 'Computer Modern Sans Serif', 'Lucida Grande', 'Verdana', 'Geneva', 'Lucid', 'Arial', 'Helvetica', 'Avant Garde', sans-serif; text-anchor: end" x="36.78125" y="157.358438" transform="rotate(-0 36.78125 157.358438)">0.5</text>
     </g>
    </g>
    <g id="ytick_3">
     <g id="line2d_29">
      <path d="M 43.78125 129.799219 
L 350.68125 129.799219 
" clip-path="url(#pa6518b6e30)" style="fill: none; stroke: #b0b0b0; stroke-width: 0.8; stroke-linecap: square"/>
     </g>
     <g id="line2d_30">
      <g>
       <use xlink:href="#m57667ea170" x="43.78125" y="129.799219" style="stroke: #000000; stroke-width: 0.8"/>
      </g>
     </g>
     <g id="text_11">
      <text style="font: 10px 'DejaVu Sans', 'Bitstream Vera Sans', 'Computer Modern Sans Serif', 'Lucida Grande', 'Verdana', 'Geneva', 'Lucid', 'Arial', 'Helvetica', 'Avant Garde', sans-serif; text-anchor: end" x="36.78125" y="133.598438" transform="rotate(-0 36.78125 133.598438)">1.0</text>
     </g>
    </g>
    <g id="ytick_4">
     <g id="line2d_31">
      <path d="M 43.78125 106.039219 
L 350.68125 106.039219 
" clip-path="url(#pa6518b6e30)" style="fill: none; stroke: #b0b0b0; stroke-width: 0.8; stroke-linecap: square"/>
     </g>
     <g id="line2d_32">
      <g>
       <use xlink:href="#m57667ea170" x="43.78125" y="106.039219" style="stroke: #000000; stroke-width: 0.8"/>
      </g>
     </g>
     <g id="text_12">
      <text style="font: 10px 'DejaVu Sans', 'Bitstream Vera Sans', 'Computer Modern Sans Serif', 'Lucida Grande', 'Verdana', 'Geneva', 'Lucid', 'Arial', 'Helvetica', 'Avant Garde', sans-serif; text-anchor: end" x="36.78125" y="109.838438" transform="rotate(-0 36.78125 109.838438)">1.5</text>
     </g>
    </g>
    <g id="ytick_5">
     <g id="line2d_33">
      <path d="M 43.78125 82.279219 
L 350.68125 82.279219 
" clip-path="url(#pa6518b6e30)" style="fill: none; stroke: #b0b0b0; stroke-width: 0.8; stroke-linecap: square"/>
     </g>
     <g id="line2d_34">
      <g>
       <use xlink:href="#m57667ea170" x="43.78125" y="82.279219" style="stroke: #000000; stroke-width: 0.8"/>
      </g>
     </g>
     <g id="text_13">
      <text style="font: 10px 'DejaVu Sans', 'Bitstream Vera Sans', 'Computer Modern Sans Serif', 'Lucida Grande', 'Verdana', 'Geneva', 'Lucid', 'Arial', 'Helvetica', 'Avant Garde', sans-serif; text-anchor: end" x="36.78125" y="86.078438" transform="rotate(-0 36.78125 86.078438)">2.0</text>
     </g>
    </g>
    <g id="ytick_6">
     <g id="line2d_35">
      <path d="M 43.78125 58.519219 
L 350.68125 58.519219 
" clip-path="url(#pa6518b6e30)" style="fill: none; stroke: #b0b0b0; stroke-width: 0.8; stroke-linecap: square"/>
     </g>
     <g id="line2d_36">
      <g>
       <use xlink:href="#m57667ea170" x="43.78125" y="58.519219" style="stroke: #000000; stroke-width: 0.8"/>
      </g>
     </g>
     <g id="text_14">
      <text style="font: 10px 'DejaVu Sans', 'Bitstream Vera Sans', 'Computer Modern Sans Serif', 'Lucida Grande', 'Verdana', 'Geneva', 'Lucid', 'Arial', 'Helvetica', 'Avant Garde', sans-serif; text-anchor: end" x="36.78125" y="62.318438" transform="rotate(-0 36.78125 62.318438)">2.5</text>
     </g>
    </g>
    <g id="ytick_7">
     <g id="line2d_37">
      <path d="M 43.78125 34.759219 
L 350.68125 34.759219 
" clip-path="url(#pa6518b6e30)" style="fill: none; stroke: #b0b0b0; stroke-width: 0.8; stroke-linecap: square"/>
     </g>
     <g id="line2d_38">
      <g>
       <use xlink:href="#m57667ea170" x="43.78125" y="34.759219" style="stroke: #000000; stroke-width: 0.8"/>
      </g>
     </g>
     <g id="text_15">
      <text style="font: 10px 'DejaVu Sans', 'Bitstream Vera Sans', 'Computer Modern Sans Serif', 'Lucida Grande', 'Verdana', 'Geneva', 'Lucid', 'Arial', 'Helvetica', 'Avant Garde', sans-serif; text-anchor: end" x="36.78125" y="38.558438" transform="rotate(-0 36.78125 38.558438)">3.0</text>
     </g>
    </g>
    <g id="ytick_8">
     <g id="line2d_39">
      <path d="M 43.78125 10.999219 
L 350.68125 10.999219 
" clip-path="url(#pa6518b6e30)" style="fill: none; stroke: #b0b0b0; stroke-width: 0.8; stroke-linecap: square"/>
     </g>
     <g id="line2d_40">
      <g>
       <use xlink:href="#m57667ea170" x="43.78125" y="10.999219" style="stroke: #000000; stroke-width: 0.8"/>
      </g>
     </g>
     <g id="text_16">
      <text style="font: 10px 'DejaVu Sans', 'Bitstream Vera Sans', 'Computer Modern Sans Serif', 'Lucida Grande', 'Verdana', 'Geneva', 'Lucid', 'Arial', 'Helvetica', 'Avant Garde', sans-serif; text-anchor: end" x="36.78125" y="14.798438" transform="rotate(-0 36.78125 14.798438)">3.5</text>
     </g>
    </g>
    <g id="text_17">
     <text style="font: 10px 'DejaVu Sans', 'Bitstream Vera Sans', 'Computer Modern Sans Serif', 'Lucida Grande', 'Verdana', 'Geneva', 'Lucid', 'Arial', 'Helvetica', 'Avant Garde', sans-serif; text-anchor: middle" x="14.798438" y="94.159219" transform="rotate(-90 14.798438 94.159219)">SEM, kJ/mol</text>
    </g>
   </g>
   <g id="line2d_41">
    <path d="M 336.73125 167.941105 
L 316.592432 163.216646 
L 300.971552 156.909147 
L 288.208363 153.643538 
L 277.417241 141.142253 
L 268.069545 152.826747 
L 259.824294 157.123567 
L 252.448665 149.938311 
L 245.776597 153.733893 
L 239.685476 152.583087 
L 234.082188 148.543159 
L 228.894353 118.870021 
L 224.064595 124.922783 
L 219.546658 152.406684 
L 215.302709 135.072271 
L 211.301406 156.939964 
L 207.516499 132.694329 
L 203.925778 127.842097 
L 200.510284 136.173071 
L 197.25371 114.051104 
L 194.14192 67.744678 
L 191.162589 78.124703 
" clip-path="url(#pa6518b6e30)" style="fill: none; stroke: #ff00ff; stroke-width: 1.5; stroke-linecap: square"/>
    <defs>
     <path id="me474057dd2" d="M 0 3 
C 0.795609 3 1.55874 2.683901 2.12132 2.12132 
C 2.683901 1.55874 3 0.795609 3 0 
C 3 -0.795609 2.683901 -1.55874 2.12132 -2.12132 
C 1.55874 -2.683901 0.795609 -3 0 -3 
C -0.795609 -3 -1.55874 -2.683901 -2.12132 -2.12132 
C -2.683901 -1.55874 -3 -0.795609 -3 0 
C -3 0.795609 -2.683901 1.55874 -2.12132 2.12132 
C -1.55874 2.683901 -0.795609 3 0 3 
z
" style="stroke: #ff00ff"/>
    </defs>
    <g clip-path="url(#pa6518b6e30)">
     <use xlink:href="#me474057dd2" x="336.73125" y="167.941105" style="fill: #ff00ff; stroke: #ff00ff"/>
     <use xlink:href="#me474057dd2" x="316.592432" y="163.216646" style="fill: #ff00ff; stroke: #ff00ff"/>
     <use xlink:href="#me474057dd2" x="300.971552" y="156.909147" style="fill: #ff00ff; stroke: #ff00ff"/>
     <use xlink:href="#me474057dd2" x="288.208363" y="153.643538" style="fill: #ff00ff; stroke: #ff00ff"/>
     <use xlink:href="#me474057dd2" x="277.417241" y="141.142253" style="fill: #ff00ff; stroke: #ff00ff"/>
     <use xlink:href="#me474057dd2" x="268.069545" y="152.826747" style="fill: #ff00ff; stroke: #ff00ff"/>
     <use xlink:href="#me474057dd2" x="259.824294" y="157.123567" style="fill: #ff00ff; stroke: #ff00ff"/>
     <use xlink:href="#me474057dd2" x="252.448665" y="149.938311" style="fill: #ff00ff; stroke: #ff00ff"/>
     <use xlink:href="#me474057dd2" x="245.776597" y="153.733893" style="fill: #ff00ff; stroke: #ff00ff"/>
     <use xlink:href="#me474057dd2" x="239.685476" y="152.583087" style="fill: #ff00ff; stroke: #ff00ff"/>
     <use xlink:href="#me474057dd2" x="234.082188" y="148.543159" style="fill: #ff00ff; stroke: #ff00ff"/>
     <use xlink:href="#me474057dd2" x="228.894353" y="118.870021" style="fill: #ff00ff; stroke: #ff00ff"/>
     <use xlink:href="#me474057dd2" x="224.064595" y="124.922783" style="fill: #ff00ff; stroke: #ff00ff"/>
     <use xlink:href="#me474057dd2" x="219.546658" y="152.406684" style="fill: #ff00ff; stroke: #ff00ff"/>
     <use xlink:href="#me474057dd2" x="215.302709" y="135.072271" style="fill: #ff00ff; stroke: #ff00ff"/>
     <use xlink:href="#me474057dd2" x="211.301406" y="156.939964" style="fill: #ff00ff; stroke: #ff00ff"/>
     <use xlink:href="#me474057dd2" x="207.516499" y="132.694329" style="fill: #ff00ff; stroke: #ff00ff"/>
     <use xlink:href="#me474057dd2" x="203.925778" y="127.842097" style="fill: #ff00ff; stroke: #ff00ff"/>
     <use xlink:href="#me474057dd2" x="200.510284" y="136.173071" style="fill: #ff00ff; stroke: #ff00ff"/>
     <use xlink:href="#me474057dd2" x="197.25371" y="114.051104" style="fill: #ff00ff; stroke: #ff00ff"/>
     <use xlink:href="#me474057dd2" x="194.14192" y="67.744678" style="fill: #ff00ff; stroke: #ff00ff"/>
     <use xlink:href="#me474057dd2" x="191.162589" y="78.124703" style="fill: #ff00ff; stroke: #ff00ff"/>
    </g>
   </g>
   <g id="line2d_42">
    <path d="M 336.73125 168.066803 
L 316.592432 162.785701 
L 300.971552 156.243142 
L 288.208363 153.662437 
L 277.417241 141.379194 
L 268.069545 153.096855 
L 259.824294 157.119705 
L 252.448665 149.770384 
L 245.776597 153.904227 
L 239.685476 152.779561 
L 234.082188 148.490593 
L 228.894353 118.676264 
L 224.064595 124.479331 
L 219.546658 152.469424 
L 215.302709 135.177211 
L 211.301406 157.066891 
L 207.516499 132.40038 
L 203.925778 127.542111 
L 200.510284 136.000802 
L 197.25371 94.305278 
L 194.14192 88.378488 
L 191.162589 101.303458 
" clip-path="url(#pa6518b6e30)" style="fill: none; stroke: #800080; stroke-width: 1.5; stroke-linecap: square"/>
    <defs>
     <path id="m263dfd2cd1" d="M 0 3 
C 0.795609 3 1.55874 2.683901 2.12132 2.12132 
C 2.683901 1.55874 3 0.795609 3 0 
C 3 -0.795609 2.683901 -1.55874 2.12132 -2.12132 
C 1.55874 -2.683901 0.795609 -3 0 -3 
C -0.795609 -3 -1.55874 -2.683901 -2.12132 -2.12132 
C -2.683901 -1.55874 -3 -0.795609 -3 0 
C -3 0.795609 -2.683901 1.55874 -2.12132 2.12132 
C -1.55874 2.683901 -0.795609 3 0 3 
z
" style="stroke: #800080"/>
    </defs>
    <g clip-path="url(#pa6518b6e30)">
     <use xlink:href="#m263dfd2cd1" x="336.73125" y="168.066803" style="fill: #800080; stroke: #800080"/>
     <use xlink:href="#m263dfd2cd1" x="316.592432" y="162.785701" style="fill: #800080; stroke: #800080"/>
     <use xlink:href="#m263dfd2cd1" x="300.971552" y="156.243142" style="fill: #800080; stroke: #800080"/>
     <use xlink:href="#m263dfd2cd1" x="288.208363" y="153.662437" style="fill: #800080; stroke: #800080"/>
     <use xlink:href="#m263dfd2cd1" x="277.417241" y="141.379194" style="fill: #800080; stroke: #800080"/>
     <use xlink:href="#m263dfd2cd1" x="268.069545" y="153.096855" style="fill: #800080; stroke: #800080"/>
     <use xlink:href="#m263dfd2cd1" x="259.824294" y="157.119705" style="fill: #800080; stroke: #800080"/>
     <use xlink:href="#m263dfd2cd1" x="252.448665" y="149.770384" style="fill: #800080; stroke: #800080"/>
     <use xlink:href="#m263dfd2cd1" x="245.776597" y="153.904227" style="fill: #800080; stroke: #800080"/>
     <use xlink:href="#m263dfd2cd1" x="239.685476" y="152.779561" style="fill: #800080; stroke: #800080"/>
     <use xlink:href="#m263dfd2cd1" x="234.082188" y="148.490593" style="fill: #800080; stroke: #800080"/>
     <use xlink:href="#m263dfd2cd1" x="228.894353" y="118.676264" style="fill: #800080; stroke: #800080"/>
     <use xlink:href="#m263dfd2cd1" x="224.064595" y="124.479331" style="fill: #800080; stroke: #800080"/>
     <use xlink:href="#m263dfd2cd1" x="219.546658" y="152.469424" style="fill: #800080; stroke: #800080"/>
     <use xlink:href="#m263dfd2cd1" x="215.302709" y="135.177211" style="fill: #800080; stroke: #800080"/>
     <use xlink:href="#m263dfd2cd1" x="211.301406" y="157.066891" style="fill: #800080; stroke: #800080"/>
     <use xlink:href="#m263dfd2cd1" x="207.516499" y="132.40038" style="fill: #800080; stroke: #800080"/>
     <use xlink:href="#m263dfd2cd1" x="203.925778" y="127.542111" style="fill: #800080; stroke: #800080"/>
     <use xlink:href="#m263dfd2cd1" x="200.510284" y="136.000802" style="fill: #800080; stroke: #800080"/>
     <use xlink:href="#m263dfd2cd1" x="197.25371" y="94.305278" style="fill: #800080; stroke: #800080"/>
     <use xlink:href="#m263dfd2cd1" x="194.14192" y="88.378488" style="fill: #800080; stroke: #800080"/>
     <use xlink:href="#m263dfd2cd1" x="191.162589" y="101.303458" style="fill: #800080; stroke: #800080"/>
    </g>
   </g>
   <g id="line2d_43">
    <path d="M 203.299911 136.045531 
L 183.161094 155.220173 
L 167.540213 148.8103 
L 154.777024 105.815166 
L 143.985902 147.54216 
L 134.638206 119.920145 
L 126.392955 22.695934 
L 119.017326 64.582794 
L 112.345258 48.594309 
L 106.254137 59.67049 
L 100.650849 66.213948 
L 95.463015 75.325555 
L 90.633256 62.607738 
L 86.115319 82.073088 
L 81.87137 74.614625 
L 77.870068 65.681891 
L 74.085161 73.714225 
L 70.494439 93.48818 
L 67.078945 77.067827 
L 63.822371 99.5306 
L 60.710582 86.49688 
L 57.73125 86.487996 
" clip-path="url(#pa6518b6e30)" style="fill: none; stroke: #008000; stroke-width: 1.5; stroke-linecap: square"/>
    <defs>
     <path id="mfdba1f2323" d="M 0 3 
C 0.795609 3 1.55874 2.683901 2.12132 2.12132 
C 2.683901 1.55874 3 0.795609 3 0 
C 3 -0.795609 2.683901 -1.55874 2.12132 -2.12132 
C 1.55874 -2.683901 0.795609 -3 0 -3 
C -0.795609 -3 -1.55874 -2.683901 -2.12132 -2.12132 
C -2.683901 -1.55874 -3 -0.795609 -3 0 
C -3 0.795609 -2.683901 1.55874 -2.12132 2.12132 
C -1.55874 2.683901 -0.795609 3 0 3 
z
" style="stroke: #008000"/>
    </defs>
    <g clip-path="url(#pa6518b6e30)">
     <use xlink:href="#mfdba1f2323" x="203.299911" y="136.045531" style="fill: #008000; stroke: #008000"/>
     <use xlink:href="#mfdba1f2323" x="183.161094" y="155.220173" style="fill: #008000; stroke: #008000"/>
     <use xlink:href="#mfdba1f2323" x="167.540213" y="148.8103" style="fill: #008000; stroke: #008000"/>
     <use xlink:href="#mfdba1f2323" x="154.777024" y="105.815166" style="fill: #008000; stroke: #008000"/>
     <use xlink:href="#mfdba1f2323" x="143.985902" y="147.54216" style="fill: #008000; stroke: #008000"/>
     <use xlink:href="#mfdba1f2323" x="134.638206" y="119.920145" style="fill: #008000; stroke: #008000"/>
     <use xlink:href="#mfdba1f2323" x="126.392955" y="22.695934" style="fill: #008000; stroke: #008000"/>
     <use xlink:href="#mfdba1f2323" x="119.017326" y="64.582794" style="fill: #008000; stroke: #008000"/>
     <use xlink:href="#mfdba1f2323" x="112.345258" y="48.594309" style="fill: #008000; stroke: #008000"/>
     <use xlink:href="#mfdba1f2323" x="106.254137" y="59.67049" style="fill: #008000; stroke: #008000"/>
     <use xlink:href="#mfdba1f2323" x="100.650849" y="66.213948" style="fill: #008000; stroke: #008000"/>
     <use xlink:href="#mfdba1f2323" x="95.463015" y="75.325555" style="fill: #008000; stroke: #008000"/>
     <use xlink:href="#mfdba1f2323" x="90.633256" y="62.607738" style="fill: #008000; stroke: #008000"/>
     <use xlink:href="#mfdba1f2323" x="86.115319" y="82.073088" style="fill: #008000; stroke: #008000"/>
     <use xlink:href="#mfdba1f2323" x="81.87137" y="74.614625" style="fill: #008000; stroke: #008000"/>
     <use xlink:href="#mfdba1f2323" x="77.870068" y="65.681891" style="fill: #008000; stroke: #008000"/>
     <use xlink:href="#mfdba1f2323" x="74.085161" y="73.714225" style="fill: #008000; stroke: #008000"/>
     <use xlink:href="#mfdba1f2323" x="70.494439" y="93.48818" style="fill: #008000; stroke: #008000"/>
     <use xlink:href="#mfdba1f2323" x="67.078945" y="77.067827" style="fill: #008000; stroke: #008000"/>
     <use xlink:href="#mfdba1f2323" x="63.822371" y="99.5306" style="fill: #008000; stroke: #008000"/>
     <use xlink:href="#mfdba1f2323" x="60.710582" y="86.49688" style="fill: #008000; stroke: #008000"/>
     <use xlink:href="#mfdba1f2323" x="57.73125" y="86.487996" style="fill: #008000; stroke: #008000"/>
    </g>
   </g>
   <g id="line2d_44">
    <path d="M 203.299911 139.281466 
L 183.161094 154.820591 
L 167.540213 150.475785 
L 154.777024 112.868574 
L 143.985902 147.79341 
L 134.638206 123.870803 
L 126.392955 92.174601 
L 119.017326 102.380024 
L 112.345258 102.809123 
L 106.254137 103.05064 
L 100.650849 106.409118 
L 95.463015 109.574262 
L 90.633256 101.900687 
L 86.115319 110.576432 
L 81.87137 104.569002 
L 77.870068 93.919099 
L 74.085161 72.435058 
L 70.494439 113.579285 
L 67.078945 110.856272 
L 63.822371 97.610605 
L 60.710582 83.922568 
L 57.73125 83.040105 
" clip-path="url(#pa6518b6e30)" style="fill: none; stroke: #004000; stroke-width: 1.5; stroke-linecap: square"/>
    <defs>
     <path id="m216f250151" d="M 0 3 
C 0.795609 3 1.55874 2.683901 2.12132 2.12132 
C 2.683901 1.55874 3 0.795609 3 0 
C 3 -0.795609 2.683901 -1.55874 2.12132 -2.12132 
C 1.55874 -2.683901 0.795609 -3 0 -3 
C -0.795609 -3 -1.55874 -2.683901 -2.12132 -2.12132 
C -2.683901 -1.55874 -3 -0.795609 -3 0 
C -3 0.795609 -2.683901 1.55874 -2.12132 2.12132 
C -1.55874 2.683901 -0.795609 3 0 3 
z
" style="stroke: #004000"/>
    </defs>
    <g clip-path="url(#pa6518b6e30)">
     <use xlink:href="#m216f250151" x="203.299911" y="139.281466" style="fill: #004000; stroke: #004000"/>
     <use xlink:href="#m216f250151" x="183.161094" y="154.820591" style="fill: #004000; stroke: #004000"/>
     <use xlink:href="#m216f250151" x="167.540213" y="150.475785" style="fill: #004000; stroke: #004000"/>
     <use xlink:href="#m216f250151" x="154.777024" y="112.868574" style="fill: #004000; stroke: #004000"/>
     <use xlink:href="#m216f250151" x="143.985902" y="147.79341" style="fill: #004000; stroke: #004000"/>
     <use xlink:href="#m216f250151" x="134.638206" y="123.870803" style="fill: #004000; stroke: #004000"/>
     <use xlink:href="#m216f250151" x="126.392955" y="92.174601" style="fill: #004000; stroke: #004000"/>
     <use xlink:href="#m216f250151" x="119.017326" y="102.380024" style="fill: #004000; stroke: #004000"/>
     <use xlink:href="#m216f250151" x="112.345258" y="102.809123" style="fill: #004000; stroke: #004000"/>
     <use xlink:href="#m216f250151" x="106.254137" y="103.05064" style="fill: #004000; stroke: #004000"/>
     <use xlink:href="#m216f250151" x="100.650849" y="106.409118" style="fill: #004000; stroke: #004000"/>
     <use xlink:href="#m216f250151" x="95.463015" y="109.574262" style="fill: #004000; stroke: #004000"/>
     <use xlink:href="#m216f250151" x="90.633256" y="101.900687" style="fill: #004000; stroke: #004000"/>
     <use xlink:href="#m216f250151" x="86.115319" y="110.576432" style="fill: #004000; stroke: #004000"/>
     <use xlink:href="#m216f250151" x="81.87137" y="104.569002" style="fill: #004000; stroke: #004000"/>
     <use xlink:href="#m216f250151" x="77.870068" y="93.919099" style="fill: #004000; stroke: #004000"/>
     <use xlink:href="#m216f250151" x="74.085161" y="72.435058" style="fill: #004000; stroke: #004000"/>
     <use xlink:href="#m216f250151" x="70.494439" y="113.579285" style="fill: #004000; stroke: #004000"/>
     <use xlink:href="#m216f250151" x="67.078945" y="110.856272" style="fill: #004000; stroke: #004000"/>
     <use xlink:href="#m216f250151" x="63.822371" y="97.610605" style="fill: #004000; stroke: #004000"/>
     <use xlink:href="#m216f250151" x="60.710582" y="83.922568" style="fill: #004000; stroke: #004000"/>
     <use xlink:href="#m216f250151" x="57.73125" y="83.040105" style="fill: #004000; stroke: #004000"/>
    </g>
   </g>
   <g id="line2d_45">
    <path d="M 316.947366 142.10583 
L 296.808548 154.998014 
L 281.187668 147.01707 
L 268.424479 144.264989 
L 257.633357 147.204068 
L 248.285661 147.162327 
L 240.04041 148.595266 
L 232.664781 149.653961 
L 225.992713 145.715113 
L 219.901592 141.922571 
L 214.298304 138.013104 
L 209.11047 145.009471 
L 204.280711 140.350391 
L 199.762774 144.879845 
L 195.518825 134.278826 
L 191.517522 143.976041 
L 187.732615 130.456733 
L 184.141894 132.911253 
L 180.7264 141.827763 
L 177.469826 134.290739 
L 174.358036 138.871634 
L 171.378705 137.687448 
" clip-path="url(#pa6518b6e30)" style="fill: none; stroke: #0000ff; stroke-width: 1.5; stroke-linecap: square"/>
    <defs>
     <path id="m19b1919930" d="M 0 3 
C 0.795609 3 1.55874 2.683901 2.12132 2.12132 
C 2.683901 1.55874 3 0.795609 3 0 
C 3 -0.795609 2.683901 -1.55874 2.12132 -2.12132 
C 1.55874 -2.683901 0.795609 -3 0 -3 
C -0.795609 -3 -1.55874 -2.683901 -2.12132 -2.12132 
C -2.683901 -1.55874 -3 -0.795609 -3 0 
C -3 0.795609 -2.683901 1.55874 -2.12132 2.12132 
C -1.55874 2.683901 -0.795609 3 0 3 
z
" style="stroke: #0000ff"/>
    </defs>
    <g clip-path="url(#pa6518b6e30)">
     <use xlink:href="#m19b1919930" x="316.947366" y="142.10583" style="fill: #0000ff; stroke: #0000ff"/>
     <use xlink:href="#m19b1919930" x="296.808548" y="154.998014" style="fill: #0000ff; stroke: #0000ff"/>
     <use xlink:href="#m19b1919930" x="281.187668" y="147.01707" style="fill: #0000ff; stroke: #0000ff"/>
     <use xlink:href="#m19b1919930" x="268.424479" y="144.264989" style="fill: #0000ff; stroke: #0000ff"/>
     <use xlink:href="#m19b1919930" x="257.633357" y="147.204068" style="fill: #0000ff; stroke: #0000ff"/>
     <use xlink:href="#m19b1919930" x="248.285661" y="147.162327" style="fill: #0000ff; stroke: #0000ff"/>
     <use xlink:href="#m19b1919930" x="240.04041" y="148.595266" style="fill: #0000ff; stroke: #0000ff"/>
     <use xlink:href="#m19b1919930" x="232.664781" y="149.653961" style="fill: #0000ff; stroke: #0000ff"/>
     <use xlink:href="#m19b1919930" x="225.992713" y="145.715113" style="fill: #0000ff; stroke: #0000ff"/>
     <use xlink:href="#m19b1919930" x="219.901592" y="141.922571" style="fill: #0000ff; stroke: #0000ff"/>
     <use xlink:href="#m19b1919930" x="214.298304" y="138.013104" style="fill: #0000ff; stroke: #0000ff"/>
     <use xlink:href="#m19b1919930" x="209.11047" y="145.009471" style="fill: #0000ff; stroke: #0000ff"/>
     <use xlink:href="#m19b1919930" x="204.280711" y="140.350391" style="fill: #0000ff; stroke: #0000ff"/>
     <use xlink:href="#m19b1919930" x="199.762774" y="144.879845" style="fill: #0000ff; stroke: #0000ff"/>
     <use xlink:href="#m19b1919930" x="195.518825" y="134.278826" style="fill: #0000ff; stroke: #0000ff"/>
     <use xlink:href="#m19b1919930" x="191.517522" y="143.976041" style="fill: #0000ff; stroke: #0000ff"/>
     <use xlink:href="#m19b1919930" x="187.732615" y="130.456733" style="fill: #0000ff; stroke: #0000ff"/>
     <use xlink:href="#m19b1919930" x="184.141894" y="132.911253" style="fill: #0000ff; stroke: #0000ff"/>
     <use xlink:href="#m19b1919930" x="180.7264" y="141.827763" style="fill: #0000ff; stroke: #0000ff"/>
     <use xlink:href="#m19b1919930" x="177.469826" y="134.290739" style="fill: #0000ff; stroke: #0000ff"/>
     <use xlink:href="#m19b1919930" x="174.358036" y="138.871634" style="fill: #0000ff; stroke: #0000ff"/>
     <use xlink:href="#m19b1919930" x="171.378705" y="137.687448" style="fill: #0000ff; stroke: #0000ff"/>
    </g>
   </g>
   <g id="line2d_46">
    <path d="M 316.947366 141.933175 
L 296.808548 155.136376 
L 281.187668 147.767532 
L 268.424479 144.317809 
L 257.633357 147.839912 
L 248.285661 147.338002 
L 240.04041 148.582393 
L 232.664781 149.996894 
L 225.992713 145.788474 
L 219.901592 143.055392 
L 214.298304 138.731794 
L 209.11047 145.505399 
L 204.280711 144.037611 
L 199.762774 145.427932 
L 195.518825 137.148888 
L 191.517522 146.107793 
L 187.732615 133.239679 
L 184.141894 133.353338 
L 180.7264 142.104254 
L 177.469826 136.436738 
L 174.358036 139.603217 
L 171.378705 140.35952 
" clip-path="url(#pa6518b6e30)" style="fill: none; stroke: #000080; stroke-width: 1.5; stroke-linecap: square"/>
    <defs>
     <path id="m47bb839100" d="M 0 3 
C 0.795609 3 1.55874 2.683901 2.12132 2.12132 
C 2.683901 1.55874 3 0.795609 3 0 
C 3 -0.795609 2.683901 -1.55874 2.12132 -2.12132 
C 1.55874 -2.683901 0.795609 -3 0 -3 
C -0.795609 -3 -1.55874 -2.683901 -2.12132 -2.12132 
C -2.683901 -1.55874 -3 -0.795609 -3 0 
C -3 0.795609 -2.683901 1.55874 -2.12132 2.12132 
C -1.55874 2.683901 -0.795609 3 0 3 
z
" style="stroke: #000080"/>
    </defs>
    <g clip-path="url(#pa6518b6e30)">
     <use xlink:href="#m47bb839100" x="316.947366" y="141.933175" style="fill: #000080; stroke: #000080"/>
     <use xlink:href="#m47bb839100" x="296.808548" y="155.136376" style="fill: #000080; stroke: #000080"/>
     <use xlink:href="#m47bb839100" x="281.187668" y="147.767532" style="fill: #000080; stroke: #000080"/>
     <use xlink:href="#m47bb839100" x="268.424479" y="144.317809" style="fill: #000080; stroke: #000080"/>
     <use xlink:href="#m47bb839100" x="257.633357" y="147.839912" style="fill: #000080; stroke: #000080"/>
     <use xlink:href="#m47bb839100" x="248.285661" y="147.338002" style="fill: #000080; stroke: #000080"/>
     <use xlink:href="#m47bb839100" x="240.04041" y="148.582393" style="fill: #000080; stroke: #000080"/>
     <use xlink:href="#m47bb839100" x="232.664781" y="149.996894" style="fill: #000080; stroke: #000080"/>
     <use xlink:href="#m47bb839100" x="225.992713" y="145.788474" style="fill: #000080; stroke: #000080"/>
     <use xlink:href="#m47bb839100" x="219.901592" y="143.055392" style="fill: #000080; stroke: #000080"/>
     <use xlink:href="#m47bb839100" x="214.298304" y="138.731794" style="fill: #000080; stroke: #000080"/>
     <use xlink:href="#m47bb839100" x="209.11047" y="145.505399" style="fill: #000080; stroke: #000080"/>
     <use xlink:href="#m47bb839100" x="204.280711" y="144.037611" style="fill: #000080; stroke: #000080"/>
     <use xlink:href="#m47bb839100" x="199.762774" y="145.427932" style="fill: #000080; stroke: #000080"/>
     <use xlink:href="#m47bb839100" x="195.518825" y="137.148888" style="fill: #000080; stroke: #000080"/>
     <use xlink:href="#m47bb839100" x="191.517522" y="146.107793" style="fill: #000080; stroke: #000080"/>
     <use xlink:href="#m47bb839100" x="187.732615" y="133.239679" style="fill: #000080; stroke: #000080"/>
     <use xlink:href="#m47bb839100" x="184.141894" y="133.353338" style="fill: #000080; stroke: #000080"/>
     <use xlink:href="#m47bb839100" x="180.7264" y="142.104254" style="fill: #000080; stroke: #000080"/>
     <use xlink:href="#m47bb839100" x="177.469826" y="136.436738" style="fill: #000080; stroke: #000080"/>
     <use xlink:href="#m47bb839100" x="174.358036" y="139.603217" style="fill: #000080; stroke: #000080"/>
     <use xlink:href="#m47bb839100" x="171.378705" y="140.35952" style="fill: #000080; stroke: #000080"/>
    </g>
   </g>
   <g id="patch_3">
    <path d="M 43.78125 177.319219 
L 43.78125 10.999219 
" style="fill: none; stroke: #000000; stroke-width: 0.8; stroke-linejoin: miter; stroke-linecap: square"/>
   </g>
   <g id="patch_4">
    <path d="M 350.68125 177.319219 
L 350.68125 10.999219 
" style="fill: none; stroke: #000000; stroke-width: 0.8; stroke-linejoin: miter; stroke-linecap: square"/>
   </g>
   <g id="patch_5">
    <path d="M 43.78125 177.319219 
L 350.68125 177.319219 
" style="fill: none; stroke: #000000; stroke-width: 0.8; stroke-linejoin: miter; stroke-linecap: square"/>
   </g>
   <g id="patch_6">
    <path d="M 43.78125 10.999219 
L 350.68125 10.999219 
" style="fill: none; stroke: #000000; stroke-width: 0.8; stroke-linejoin: miter; stroke-linecap: square"/>
   </g>
   <g id="legend_1">
    <g id="patch_7">
     <path d="M 119.025 63.867969 
L 343.68125 63.867969 
Q 345.68125 63.867969 345.68125 61.867969 
L 345.68125 17.999219 
Q 345.68125 15.999219 343.68125 15.999219 
L 119.025 15.999219 
Q 117.025 15.999219 117.025 17.999219 
L 117.025 61.867969 
Q 117.025 63.867969 119.025 63.867969 
z
" style="fill: #ffffff; opacity: 0.8; stroke: #cccccc; stroke-linejoin: miter"/>
    </g>
    <g id="line2d_47">
     <path d="M 121.025 24.097656 
L 131.025 24.097656 
L 141.025 24.097656 
" style="fill: none; stroke: #ff00ff; stroke-width: 1.5; stroke-linecap: square"/>
     <g>
      <use xlink:href="#me474057dd2" x="131.025" y="24.097656" style="fill: #ff00ff; stroke: #ff00ff"/>
     </g>
    </g>
    <g id="text_18">
     <text style="font: 10px 'DejaVu Sans', 'Bitstream Vera Sans', 'Computer Modern Sans Serif', 'Lucida Grande', 'Verdana', 'Geneva', 'Lucid', 'Arial', 'Helvetica', 'Avant Garde', sans-serif; text-anchor: start" x="149.025" y="27.597656" transform="rotate(-0 149.025 27.597656)">MG_0.8, D489</text>
    </g>
    <g id="line2d_48">
     <path d="M 121.025 39.053906 
L 131.025 39.053906 
L 141.025 39.053906 
" style="fill: none; stroke: #800080; stroke-width: 1.5; stroke-linecap: square"/>
     <g>
      <use xlink:href="#m263dfd2cd1" x="131.025" y="39.053906" style="fill: #800080; stroke: #800080"/>
     </g>
    </g>
    <g id="text_19">
     <text style="font: 10px 'DejaVu Sans', 'Bitstream Vera Sans', 'Computer Modern Sans Serif', 'Lucida Grande', 'Verdana', 'Geneva', 'Lucid', 'Arial', 'Helvetica', 'Avant Garde', sans-serif; text-anchor: start" x="149.025" y="42.553906" transform="rotate(-0 149.025 42.553906)">MG_0.8, D580</text>
    </g>
    <g id="line2d_49">
     <path d="M 121.025 54.010156 
L 131.025 54.010156 
L 141.025 54.010156 
" style="fill: none; stroke: #008000; stroke-width: 1.5; stroke-linecap: square"/>
     <g>
      <use xlink:href="#mfdba1f2323" x="131.025" y="54.010156" style="fill: #008000; stroke: #008000"/>
     </g>
    </g>
    <g id="text_20">
     <text style="font: 10px 'DejaVu Sans', 'Bitstream Vera Sans', 'Computer Modern Sans Serif', 'Lucida Grande', 'Verdana', 'Geneva', 'Lucid', 'Arial', 'Helvetica', 'Avant Garde', sans-serif; text-anchor: start" x="149.025" y="57.510156" transform="rotate(-0 149.025 57.510156)">CA_0.8, D489</text>
    </g>
    <g id="line2d_50">
     <path d="M 239.448438 24.097656 
L 249.448438 24.097656 
L 259.448438 24.097656 
" style="fill: none; stroke: #004000; stroke-width: 1.5; stroke-linecap: square"/>
     <g>
      <use xlink:href="#m216f250151" x="249.448438" y="24.097656" style="fill: #004000; stroke: #004000"/>
     </g>
    </g>
    <g id="text_21">
     <text style="font: 10px 'DejaVu Sans', 'Bitstream Vera Sans', 'Computer Modern Sans Serif', 'Lucida Grande', 'Verdana', 'Geneva', 'Lucid', 'Arial', 'Helvetica', 'Avant Garde', sans-serif; text-anchor: start" x="267.448438" y="27.597656" transform="rotate(-0 267.448438 27.597656)">CA_0.8, D580</text>
    </g>
    <g id="line2d_51">
     <path d="M 239.448438 39.053906 
L 249.448438 39.053906 
L 259.448438 39.053906 
" style="fill: none; stroke: #0000ff; stroke-width: 1.5; stroke-linecap: square"/>
     <g>
      <use xlink:href="#m19b1919930" x="249.448438" y="39.053906" style="fill: #0000ff; stroke: #0000ff"/>
     </g>
    </g>
    <g id="text_22">
     <text style="font: 10px 'DejaVu Sans', 'Bitstream Vera Sans', 'Computer Modern Sans Serif', 'Lucida Grande', 'Verdana', 'Geneva', 'Lucid', 'Arial', 'Helvetica', 'Avant Garde', sans-serif; text-anchor: start" x="267.448438" y="42.553906" transform="rotate(-0 267.448438 42.553906)">CA_0.85, D489</text>
    </g>
    <g id="line2d_52">
     <path d="M 239.448438 54.010156 
L 249.448438 54.010156 
L 259.448438 54.010156 
" style="fill: none; stroke: #000080; stroke-width: 1.5; stroke-linecap: square"/>
     <g>
      <use xlink:href="#m47bb839100" x="249.448438" y="54.010156" style="fill: #000080; stroke: #000080"/>
     </g>
    </g>
    <g id="text_23">
     <text style="font: 10px 'DejaVu Sans', 'Bitstream Vera Sans', 'Computer Modern Sans Serif', 'Lucida Grande', 'Verdana', 'Geneva', 'Lucid', 'Arial', 'Helvetica', 'Avant Garde', sans-serif; text-anchor: start" x="267.448438" y="57.510156" transform="rotate(-0 267.448438 57.510156)">CA_0.85, D580</text>
    </g>
   </g>
  </g>
 </g>
 <defs>
  <clipPath id="pa6518b6e30">
   <rect x="43.78125" y="10.999219" width="306.9" height="166.32"/>
  </clipPath>
 </defs>
</svg>
