<?xml version="1.0" encoding="utf-8" standalone="no"?>
<!DOCTYPE svg PUBLIC "-//W3C//DTD SVG 1.1//EN"
  "http://www.w3.org/Graphics/SVG/1.1/DTD/svg11.dtd">
<svg xmlns:xlink="http://www.w3.org/1999/xlink" width="357.88125pt" height="214.875469pt" viewBox="0 0 357.88125 214.875469" xmlns="http://www.w3.org/2000/svg" version="1.1">
 <metadata>
  <rdf:RDF xmlns:dc="http://purl.org/dc/elements/1.1/" xmlns:cc="http://creativecommons.org/ns#" xmlns:rdf="http://www.w3.org/1999/02/22-rdf-syntax-ns#">
   <cc:Work>
    <dc:type rdf:resource="http://purl.org/dc/dcmitype/StillImage"/>
    <dc:date>2025-06-06T02:41:49.386539</dc:date>
    <dc:format>image/svg+xml</dc:format>
    <dc:creator>
     <cc:Agent>
      <dc:title>Matplotlib v3.9.2, https://matplotlib.org/</dc:title>
     </cc:Agent>
    </dc:creator>
   </cc:Work>
  </rdf:RDF>
 </metadata>
 <defs>
  <style type="text/css">*{stroke-linejoin: round; stroke-linecap: butt}</style>
 </defs>
 <g id="figure_1">
  <g id="patch_1">
   <path d="M 0 214.875469 
L 357.88125 214.875469 
L 357.88125 0 
L 0 0 
z
" style="fill: #ffffff"/>
  </g>
  <g id="axes_1">
   <g id="patch_2">
    <path d="M 43.78125 177.319219 
L 350.68125 177.319219 
L 350.68125 10.999219 
L 43.78125 10.999219 
z
" style="fill: #ffffff"/>
   </g>
   <g id="matplotlib.axis_1">
    <g id="xtick_1">
     <g id="line2d_1">
      <path d="M 197.080201 177.319219 
L 197.080201 10.999219 
" clip-path="url(#p9c95611efb)" style="fill: none; stroke: #b0b0b0; stroke-width: 0.8; stroke-linecap: square"/>
     </g>
     <g id="line2d_2">
      <defs>
       <path id="mc79989266e" d="M 0 0 
L 0 3.5 
" style="stroke: #000000; stroke-width: 0.8"/>
      </defs>
      <g>
       <use xlink:href="#mc79989266e" x="197.080201" y="177.319219" style="stroke: #000000; stroke-width: 0.8"/>
      </g>
     </g>
     <g id="text_1">
      <text style="font: 10px 'DejaVu Sans', 'Bitstream Vera Sans', 'Computer Modern Sans Serif', 'Lucida Grande', 'Verdana', 'Geneva', 'Lucid', 'Arial', 'Helvetica', 'Avant Garde', sans-serif; text-anchor: middle" x="197.080201" y="191.917656" transform="rotate(-0 197.080201 191.917656)">0.1</text>
     </g>
    </g>
    <g id="xtick_2">
     <g id="line2d_3">
      <path d="M 245.247037 177.319219 
L 245.247037 10.999219 
" clip-path="url(#p9c95611efb)" style="fill: none; stroke: #b0b0b0; stroke-width: 0.8; stroke-linecap: square"/>
     </g>
     <g id="line2d_4">
      <g>
       <use xlink:href="#mc79989266e" x="245.247037" y="177.319219" style="stroke: #000000; stroke-width: 0.8"/>
      </g>
     </g>
     <g id="text_2">
      <text style="font: 10px 'DejaVu Sans', 'Bitstream Vera Sans', 'Computer Modern Sans Serif', 'Lucida Grande', 'Verdana', 'Geneva', 'Lucid', 'Arial', 'Helvetica', 'Avant Garde', sans-serif; text-anchor: middle" x="245.247037" y="191.917656" transform="rotate(-0 245.247037 191.917656)">0.2</text>
     </g>
    </g>
    <g id="xtick_3">
     <g id="line2d_5">
      <path d="M 273.42283 177.319219 
L 273.42283 10.999219 
" clip-path="url(#p9c95611efb)" style="fill: none; stroke: #b0b0b0; stroke-width: 0.8; stroke-linecap: square"/>
     </g>
     <g id="line2d_6">
      <g>
       <use xlink:href="#mc79989266e" x="273.42283" y="177.319219" style="stroke: #000000; stroke-width: 0.8"/>
      </g>
     </g>
     <g id="text_3">
      <text style="font: 10px 'DejaVu Sans', 'Bitstream Vera Sans', 'Computer Modern Sans Serif', 'Lucida Grande', 'Verdana', 'Geneva', 'Lucid', 'Arial', 'Helvetica', 'Avant Garde', sans-serif; text-anchor: middle" x="273.42283" y="191.917656" transform="rotate(-0 273.42283 191.917656)">0.3</text>
     </g>
    </g>
    <g id="xtick_4">
     <g id="line2d_7">
      <path d="M 293.413873 177.319219 
L 293.413873 10.999219 
" clip-path="url(#p9c95611efb)" style="fill: none; stroke: #b0b0b0; stroke-width: 0.8; stroke-linecap: square"/>
     </g>
     <g id="line2d_8">
      <g>
       <use xlink:href="#mc79989266e" x="293.413873" y="177.319219" style="stroke: #000000; stroke-width: 0.8"/>
      </g>
     </g>
     <g id="text_4">
      <text style="font: 10px 'DejaVu Sans', 'Bitstream Vera Sans', 'Computer Modern Sans Serif', 'Lucida Grande', 'Verdana', 'Geneva', 'Lucid', 'Arial', 'Helvetica', 'Avant Garde', sans-serif; text-anchor: middle" x="293.413873" y="191.917656" transform="rotate(-0 293.413873 191.917656)">0.4</text>
     </g>
    </g>
    <g id="xtick_5">
     <g id="line2d_9">
      <path d="M 308.920131 177.319219 
L 308.920131 10.999219 
" clip-path="url(#p9c95611efb)" style="fill: none; stroke: #b0b0b0; stroke-width: 0.8; stroke-linecap: square"/>
     </g>
     <g id="line2d_10">
      <g>
       <use xlink:href="#mc79989266e" x="308.920131" y="177.319219" style="stroke: #000000; stroke-width: 0.8"/>
      </g>
     </g>
     <g id="text_5">
      <text style="font: 10px 'DejaVu Sans', 'Bitstream Vera Sans', 'Computer Modern Sans Serif', 'Lucida Grande', 'Verdana', 'Geneva', 'Lucid', 'Arial', 'Helvetica', 'Avant Garde', sans-serif; text-anchor: middle" x="308.920131" y="191.917656" transform="rotate(-0 308.920131 191.917656)">0.5</text>
     </g>
    </g>
    <g id="xtick_6">
     <g id="line2d_11">
      <path d="M 321.589666 177.319219 
L 321.589666 10.999219 
" clip-path="url(#p9c95611efb)" style="fill: none; stroke: #b0b0b0; stroke-width: 0.8; stroke-linecap: square"/>
     </g>
     <g id="line2d_12">
      <g>
       <use xlink:href="#mc79989266e" x="321.589666" y="177.319219" style="stroke: #000000; stroke-width: 0.8"/>
      </g>
     </g>
     <g id="text_6">
      <text style="font: 10px 'DejaVu Sans', 'Bitstream Vera Sans', 'Computer Modern Sans Serif', 'Lucida Grande', 'Verdana', 'Geneva', 'Lucid', 'Arial', 'Helvetica', 'Avant Garde', sans-serif; text-anchor: middle" x="321.589666" y="191.917656" transform="rotate(-0 321.589666 191.917656)">0.6</text>
     </g>
    </g>
    <g id="xtick_7">
     <g id="line2d_13">
      <path d="M 341.580709 177.319219 
L 341.580709 10.999219 
" clip-path="url(#p9c95611efb)" style="fill: none; stroke: #b0b0b0; stroke-width: 0.8; stroke-linecap: square"/>
     </g>
     <g id="line2d_14">
      <g>
       <use xlink:href="#mc79989266e" x="341.580709" y="177.319219" style="stroke: #000000; stroke-width: 0.8"/>
      </g>
     </g>
     <g id="text_7">
      <text style="font: 10px 'DejaVu Sans', 'Bitstream Vera Sans', 'Computer Modern Sans Serif', 'Lucida Grande', 'Verdana', 'Geneva', 'Lucid', 'Arial', 'Helvetica', 'Avant Garde', sans-serif; text-anchor: middle" x="341.580709" y="191.917656" transform="rotate(-0 341.580709 191.917656)">0.8</text>
     </g>
    </g>
    <g id="xtick_8">
     <g id="line2d_15">
      <defs>
       <path id="mcda1a7b560" d="M 0 0 
L 0 2 
" style="stroke: #000000; stroke-width: 0.6"/>
      </defs>
      <g>
       <use xlink:href="#mcda1a7b560" x="85.24027" y="177.319219" style="stroke: #000000; stroke-width: 0.6"/>
      </g>
     </g>
    </g>
    <g id="xtick_9">
     <g id="line2d_16">
      <g>
       <use xlink:href="#mcda1a7b560" x="113.416063" y="177.319219" style="stroke: #000000; stroke-width: 0.6"/>
      </g>
     </g>
    </g>
    <g id="xtick_10">
     <g id="line2d_17">
      <g>
       <use xlink:href="#mcda1a7b560" x="133.407107" y="177.319219" style="stroke: #000000; stroke-width: 0.6"/>
      </g>
     </g>
    </g>
    <g id="xtick_11">
     <g id="line2d_18">
      <g>
       <use xlink:href="#mcda1a7b560" x="148.913364" y="177.319219" style="stroke: #000000; stroke-width: 0.6"/>
      </g>
     </g>
    </g>
    <g id="xtick_12">
     <g id="line2d_19">
      <g>
       <use xlink:href="#mcda1a7b560" x="161.5829" y="177.319219" style="stroke: #000000; stroke-width: 0.6"/>
      </g>
     </g>
    </g>
    <g id="xtick_13">
     <g id="line2d_20">
      <g>
       <use xlink:href="#mcda1a7b560" x="172.294839" y="177.319219" style="stroke: #000000; stroke-width: 0.6"/>
      </g>
     </g>
    </g>
    <g id="xtick_14">
     <g id="line2d_21">
      <g>
       <use xlink:href="#mcda1a7b560" x="181.573943" y="177.319219" style="stroke: #000000; stroke-width: 0.6"/>
      </g>
     </g>
    </g>
    <g id="xtick_15">
     <g id="line2d_22">
      <g>
       <use xlink:href="#mcda1a7b560" x="189.758692" y="177.319219" style="stroke: #000000; stroke-width: 0.6"/>
      </g>
     </g>
    </g>
    <g id="xtick_16">
     <g id="line2d_23">
      <g>
       <use xlink:href="#mcda1a7b560" x="332.301605" y="177.319219" style="stroke: #000000; stroke-width: 0.6"/>
      </g>
     </g>
    </g>
    <g id="xtick_17">
     <g id="line2d_24">
      <g>
       <use xlink:href="#mcda1a7b560" x="349.765459" y="177.319219" style="stroke: #000000; stroke-width: 0.6"/>
      </g>
     </g>
    </g>
    <g id="text_8">
     <text style="font: 10px 'DejaVu Sans', 'Bitstream Vera Sans', 'Computer Modern Sans Serif', 'Lucida Grande', 'Verdana', 'Geneva', 'Lucid', 'Arial', 'Helvetica', 'Avant Garde', sans-serif; text-anchor: middle" x="197.23125" y="205.595781" transform="rotate(-0 197.23125 205.595781)">block size, us</text>
    </g>
   </g>
   <g id="matplotlib.axis_2">
    <g id="ytick_1">
     <g id="line2d_25">
      <path d="M 43.78125 177.319219 
L 350.68125 177.319219 
" clip-path="url(#p9c95611efb)" style="fill: none; stroke: #b0b0b0; stroke-width: 0.8; stroke-linecap: square"/>
     </g>
     <g id="line2d_26">
      <defs>
       <path id="m0b56e03be0" d="M 0 0 
L -3.5 0 
" style="stroke: #000000; stroke-width: 0.8"/>
      </defs>
      <g>
       <use xlink:href="#m0b56e03be0" x="43.78125" y="177.319219" style="stroke: #000000; stroke-width: 0.8"/>
      </g>
     </g>
     <g id="text_9">
      <text style="font: 10px 'DejaVu Sans', 'Bitstream Vera Sans', 'Computer Modern Sans Serif', 'Lucida Grande', 'Verdana', 'Geneva', 'Lucid', 'Arial', 'Helvetica', 'Avant Garde', sans-serif; text-anchor: end" x="36.78125" y="181.118438" transform="rotate(-0 36.78125 181.118438)">0.0</text>
     </g>
    </g>
    <g id="ytick_2">
     <g id="line2d_27">
      <path d="M 43.78125 153.559219 
L 350.68125 153.559219 
" clip-path="url(#p9c95611efb)" style="fill: none; stroke: #b0b0b0; stroke-width: 0.8; stroke-linecap: square"/>
     </g>
     <g id="line2d_28">
      <g>
       <use xlink:href="#m0b56e03be0" x="43.78125" y="153.559219" style="stroke: #000000; stroke-width: 0.8"/>
      </g>
     </g>
     <g id="text_10">
      <text style="font: 10px 'DejaVu Sans', 'Bitstream Vera Sans', 'Computer Modern Sans Serif', 'Lucida Grande', 'Verdana', 'Geneva', 'Lucid', 'Arial', 'Helvetica', 'Avant Garde', sans-serif; text-anchor: end" x="36.78125" y="157.358438" transform="rotate(-0 36.78125 157.358438)">0.5</text>
     </g>
    </g>
    <g id="ytick_3">
     <g id="line2d_29">
      <path d="M 43.78125 129.799219 
L 350.68125 129.799219 
" clip-path="url(#p9c95611efb)" style="fill: none; stroke: #b0b0b0; stroke-width: 0.8; stroke-linecap: square"/>
     </g>
     <g id="line2d_30">
      <g>
       <use xlink:href="#m0b56e03be0" x="43.78125" y="129.799219" style="stroke: #000000; stroke-width: 0.8"/>
      </g>
     </g>
     <g id="text_11">
      <text style="font: 10px 'DejaVu Sans', 'Bitstream Vera Sans', 'Computer Modern Sans Serif', 'Lucida Grande', 'Verdana', 'Geneva', 'Lucid', 'Arial', 'Helvetica', 'Avant Garde', sans-serif; text-anchor: end" x="36.78125" y="133.598438" transform="rotate(-0 36.78125 133.598438)">1.0</text>
     </g>
    </g>
    <g id="ytick_4">
     <g id="line2d_31">
      <path d="M 43.78125 106.039219 
L 350.68125 106.039219 
" clip-path="url(#p9c95611efb)" style="fill: none; stroke: #b0b0b0; stroke-width: 0.8; stroke-linecap: square"/>
     </g>
     <g id="line2d_32">
      <g>
       <use xlink:href="#m0b56e03be0" x="43.78125" y="106.039219" style="stroke: #000000; stroke-width: 0.8"/>
      </g>
     </g>
     <g id="text_12">
      <text style="font: 10px 'DejaVu Sans', 'Bitstream Vera Sans', 'Computer Modern Sans Serif', 'Lucida Grande', 'Verdana', 'Geneva', 'Lucid', 'Arial', 'Helvetica', 'Avant Garde', sans-serif; text-anchor: end" x="36.78125" y="109.838438" transform="rotate(-0 36.78125 109.838438)">1.5</text>
     </g>
    </g>
    <g id="ytick_5">
     <g id="line2d_33">
      <path d="M 43.78125 82.279219 
L 350.68125 82.279219 
" clip-path="url(#p9c95611efb)" style="fill: none; stroke: #b0b0b0; stroke-width: 0.8; stroke-linecap: square"/>
     </g>
     <g id="line2d_34">
      <g>
       <use xlink:href="#m0b56e03be0" x="43.78125" y="82.279219" style="stroke: #000000; stroke-width: 0.8"/>
      </g>
     </g>
     <g id="text_13">
      <text style="font: 10px 'DejaVu Sans', 'Bitstream Vera Sans', 'Computer Modern Sans Serif', 'Lucida Grande', 'Verdana', 'Geneva', 'Lucid', 'Arial', 'Helvetica', 'Avant Garde', sans-serif; text-anchor: end" x="36.78125" y="86.078438" transform="rotate(-0 36.78125 86.078438)">2.0</text>
     </g>
    </g>
    <g id="ytick_6">
     <g id="line2d_35">
      <path d="M 43.78125 58.519219 
L 350.68125 58.519219 
" clip-path="url(#p9c95611efb)" style="fill: none; stroke: #b0b0b0; stroke-width: 0.8; stroke-linecap: square"/>
     </g>
     <g id="line2d_36">
      <g>
       <use xlink:href="#m0b56e03be0" x="43.78125" y="58.519219" style="stroke: #000000; stroke-width: 0.8"/>
      </g>
     </g>
     <g id="text_14">
      <text style="font: 10px 'DejaVu Sans', 'Bitstream Vera Sans', 'Computer Modern Sans Serif', 'Lucida Grande', 'Verdana', 'Geneva', 'Lucid', 'Arial', 'Helvetica', 'Avant Garde', sans-serif; text-anchor: end" x="36.78125" y="62.318438" transform="rotate(-0 36.78125 62.318438)">2.5</text>
     </g>
    </g>
    <g id="ytick_7">
     <g id="line2d_37">
      <path d="M 43.78125 34.759219 
L 350.68125 34.759219 
" clip-path="url(#p9c95611efb)" style="fill: none; stroke: #b0b0b0; stroke-width: 0.8; stroke-linecap: square"/>
     </g>
     <g id="line2d_38">
      <g>
       <use xlink:href="#m0b56e03be0" x="43.78125" y="34.759219" style="stroke: #000000; stroke-width: 0.8"/>
      </g>
     </g>
     <g id="text_15">
      <text style="font: 10px 'DejaVu Sans', 'Bitstream Vera Sans', 'Computer Modern Sans Serif', 'Lucida Grande', 'Verdana', 'Geneva', 'Lucid', 'Arial', 'Helvetica', 'Avant Garde', sans-serif; text-anchor: end" x="36.78125" y="38.558438" transform="rotate(-0 36.78125 38.558438)">3.0</text>
     </g>
    </g>
    <g id="ytick_8">
     <g id="line2d_39">
      <path d="M 43.78125 10.999219 
L 350.68125 10.999219 
" clip-path="url(#p9c95611efb)" style="fill: none; stroke: #b0b0b0; stroke-width: 0.8; stroke-linecap: square"/>
     </g>
     <g id="line2d_40">
      <g>
       <use xlink:href="#m0b56e03be0" x="43.78125" y="10.999219" style="stroke: #000000; stroke-width: 0.8"/>
      </g>
     </g>
     <g id="text_16">
      <text style="font: 10px 'DejaVu Sans', 'Bitstream Vera Sans', 'Computer Modern Sans Serif', 'Lucida Grande', 'Verdana', 'Geneva', 'Lucid', 'Arial', 'Helvetica', 'Avant Garde', sans-serif; text-anchor: end" x="36.78125" y="14.798438" transform="rotate(-0 36.78125 14.798438)">3.5</text>
     </g>
    </g>
    <g id="text_17">
     <text style="font: 10px 'DejaVu Sans', 'Bitstream Vera Sans', 'Computer Modern Sans Serif', 'Lucida Grande', 'Verdana', 'Geneva', 'Lucid', 'Arial', 'Helvetica', 'Avant Garde', sans-serif; text-anchor: middle" x="14.798438" y="94.159219" transform="rotate(-90 14.798438 94.159219)">SEM, kJ/mol</text>
    </g>
   </g>
   <g id="line2d_41">
    <path d="M 336.73125 167.941105 
L 316.740207 163.216646 
L 301.233949 156.909147 
L 288.564414 153.643538 
L 277.852474 141.142253 
L 268.573371 152.826747 
L 260.388621 157.123567 
L 253.067113 149.938311 
L 246.444003 153.733893 
L 240.397578 152.583087 
L 234.835405 148.543159 
L 229.685638 118.870021 
L 224.89132 124.922783 
L 220.406534 152.406684 
L 216.193726 135.072271 
L 212.221785 156.939964 
L 208.46465 132.694329 
L 204.900276 127.842097 
L 201.509845 136.173071 
L 198.277167 114.051104 
L 195.188211 67.744678 
L 192.230741 78.124703 
" clip-path="url(#p9c95611efb)" style="fill: none; stroke: #ff00ff; stroke-width: 1.5; stroke-linecap: square"/>
    <defs>
     <path id="m0a87114396" d="M 0 3 
C 0.795609 3 1.55874 2.683901 2.12132 2.12132 
C 2.683901 1.55874 3 0.795609 3 0 
C 3 -0.795609 2.683901 -1.55874 2.12132 -2.12132 
C 1.55874 -2.683901 0.795609 -3 0 -3 
C -0.795609 -3 -1.55874 -2.683901 -2.12132 -2.12132 
C -2.683901 -1.55874 -3 -0.795609 -3 0 
C -3 0.795609 -2.683901 1.55874 -2.12132 2.12132 
C -1.55874 2.683901 -0.795609 3 0 3 
z
" style="stroke: #ff00ff"/>
    </defs>
    <g clip-path="url(#p9c95611efb)">
     <use xlink:href="#m0a87114396" x="336.73125" y="167.941105" style="fill: #ff00ff; stroke: #ff00ff"/>
     <use xlink:href="#m0a87114396" x="316.740207" y="163.216646" style="fill: #ff00ff; stroke: #ff00ff"/>
     <use xlink:href="#m0a87114396" x="301.233949" y="156.909147" style="fill: #ff00ff; stroke: #ff00ff"/>
     <use xlink:href="#m0a87114396" x="288.564414" y="153.643538" style="fill: #ff00ff; stroke: #ff00ff"/>
     <use xlink:href="#m0a87114396" x="277.852474" y="141.142253" style="fill: #ff00ff; stroke: #ff00ff"/>
     <use xlink:href="#m0a87114396" x="268.573371" y="152.826747" style="fill: #ff00ff; stroke: #ff00ff"/>
     <use xlink:href="#m0a87114396" x="260.388621" y="157.123567" style="fill: #ff00ff; stroke: #ff00ff"/>
     <use xlink:href="#m0a87114396" x="253.067113" y="149.938311" style="fill: #ff00ff; stroke: #ff00ff"/>
     <use xlink:href="#m0a87114396" x="246.444003" y="153.733893" style="fill: #ff00ff; stroke: #ff00ff"/>
     <use xlink:href="#m0a87114396" x="240.397578" y="152.583087" style="fill: #ff00ff; stroke: #ff00ff"/>
     <use xlink:href="#m0a87114396" x="234.835405" y="148.543159" style="fill: #ff00ff; stroke: #ff00ff"/>
     <use xlink:href="#m0a87114396" x="229.685638" y="118.870021" style="fill: #ff00ff; stroke: #ff00ff"/>
     <use xlink:href="#m0a87114396" x="224.89132" y="124.922783" style="fill: #ff00ff; stroke: #ff00ff"/>
     <use xlink:href="#m0a87114396" x="220.406534" y="152.406684" style="fill: #ff00ff; stroke: #ff00ff"/>
     <use xlink:href="#m0a87114396" x="216.193726" y="135.072271" style="fill: #ff00ff; stroke: #ff00ff"/>
     <use xlink:href="#m0a87114396" x="212.221785" y="156.939964" style="fill: #ff00ff; stroke: #ff00ff"/>
     <use xlink:href="#m0a87114396" x="208.46465" y="132.694329" style="fill: #ff00ff; stroke: #ff00ff"/>
     <use xlink:href="#m0a87114396" x="204.900276" y="127.842097" style="fill: #ff00ff; stroke: #ff00ff"/>
     <use xlink:href="#m0a87114396" x="201.509845" y="136.173071" style="fill: #ff00ff; stroke: #ff00ff"/>
     <use xlink:href="#m0a87114396" x="198.277167" y="114.051104" style="fill: #ff00ff; stroke: #ff00ff"/>
     <use xlink:href="#m0a87114396" x="195.188211" y="67.744678" style="fill: #ff00ff; stroke: #ff00ff"/>
     <use xlink:href="#m0a87114396" x="192.230741" y="78.124703" style="fill: #ff00ff; stroke: #ff00ff"/>
    </g>
   </g>
   <g id="line2d_42">
    <path d="M 336.73125 168.066803 
L 316.740207 162.785701 
L 301.233949 156.243142 
L 288.564414 153.662437 
L 277.852474 141.379194 
L 268.573371 153.096855 
L 260.388621 157.119705 
L 253.067113 149.770384 
L 246.444003 153.904227 
L 240.397578 152.779561 
L 234.835405 148.490593 
L 229.685638 118.676264 
L 224.89132 124.479331 
L 220.406534 152.469424 
L 216.193726 135.177211 
L 212.221785 157.066891 
L 208.46465 132.40038 
L 204.900276 127.542111 
L 201.509845 136.000802 
L 198.277167 94.305278 
L 195.188211 88.378488 
L 192.230741 101.303458 
" clip-path="url(#p9c95611efb)" style="fill: none; stroke: #800080; stroke-width: 1.5; stroke-linecap: square"/>
    <defs>
     <path id="m57cece220d" d="M 0 3 
C 0.795609 3 1.55874 2.683901 2.12132 2.12132 
C 2.683901 1.55874 3 0.795609 3 0 
C 3 -0.795609 2.683901 -1.55874 2.12132 -2.12132 
C 1.55874 -2.683901 0.795609 -3 0 -3 
C -0.795609 -3 -1.55874 -2.683901 -2.12132 -2.12132 
C -2.683901 -1.55874 -3 -0.795609 -3 0 
C -3 0.795609 -2.683901 1.55874 -2.12132 2.12132 
C -1.55874 2.683901 -0.795609 3 0 3 
z
" style="stroke: #800080"/>
    </defs>
    <g clip-path="url(#p9c95611efb)">
     <use xlink:href="#m57cece220d" x="336.73125" y="168.066803" style="fill: #800080; stroke: #800080"/>
     <use xlink:href="#m57cece220d" x="316.740207" y="162.785701" style="fill: #800080; stroke: #800080"/>
     <use xlink:href="#m57cece220d" x="301.233949" y="156.243142" style="fill: #800080; stroke: #800080"/>
     <use xlink:href="#m57cece220d" x="288.564414" y="153.662437" style="fill: #800080; stroke: #800080"/>
     <use xlink:href="#m57cece220d" x="277.852474" y="141.379194" style="fill: #800080; stroke: #800080"/>
     <use xlink:href="#m57cece220d" x="268.573371" y="153.096855" style="fill: #800080; stroke: #800080"/>
     <use xlink:href="#m57cece220d" x="260.388621" y="157.119705" style="fill: #800080; stroke: #800080"/>
     <use xlink:href="#m57cece220d" x="253.067113" y="149.770384" style="fill: #800080; stroke: #800080"/>
     <use xlink:href="#m57cece220d" x="246.444003" y="153.904227" style="fill: #800080; stroke: #800080"/>
     <use xlink:href="#m57cece220d" x="240.397578" y="152.779561" style="fill: #800080; stroke: #800080"/>
     <use xlink:href="#m57cece220d" x="234.835405" y="148.490593" style="fill: #800080; stroke: #800080"/>
     <use xlink:href="#m57cece220d" x="229.685638" y="118.676264" style="fill: #800080; stroke: #800080"/>
     <use xlink:href="#m57cece220d" x="224.89132" y="124.479331" style="fill: #800080; stroke: #800080"/>
     <use xlink:href="#m57cece220d" x="220.406534" y="152.469424" style="fill: #800080; stroke: #800080"/>
     <use xlink:href="#m57cece220d" x="216.193726" y="135.177211" style="fill: #800080; stroke: #800080"/>
     <use xlink:href="#m57cece220d" x="212.221785" y="157.066891" style="fill: #800080; stroke: #800080"/>
     <use xlink:href="#m57cece220d" x="208.46465" y="132.40038" style="fill: #800080; stroke: #800080"/>
     <use xlink:href="#m57cece220d" x="204.900276" y="127.542111" style="fill: #800080; stroke: #800080"/>
     <use xlink:href="#m57cece220d" x="201.509845" y="136.000802" style="fill: #800080; stroke: #800080"/>
     <use xlink:href="#m57cece220d" x="198.277167" y="94.305278" style="fill: #800080; stroke: #800080"/>
     <use xlink:href="#m57cece220d" x="195.188211" y="88.378488" style="fill: #800080; stroke: #800080"/>
     <use xlink:href="#m57cece220d" x="192.230741" y="101.303458" style="fill: #800080; stroke: #800080"/>
    </g>
   </g>
   <g id="line2d_43">
    <path d="M 202.231759 135.515875 
L 182.240715 155.141317 
L 166.734458 149.368497 
L 154.064922 106.433352 
L 143.352983 147.849211 
L 134.073879 125.157752 
L 125.889129 59.943971 
L 118.567621 125.876878 
L 111.944512 38.53796 
L 105.898086 59.417976 
L 100.335914 88.148752 
L 95.186147 67.835877 
L 90.391828 72.673669 
L 85.907043 91.73105 
L 81.694235 32.395672 
L 77.722293 91.425128 
L 73.965159 90.886516 
L 70.400785 87.07318 
L 67.010354 91.626325 
L 63.777675 73.887613 
L 60.68872 64.570549 
L 57.73125 93.642166 
" clip-path="url(#p9c95611efb)" style="fill: none; stroke: #008000; stroke-width: 1.5; stroke-linecap: square"/>
    <defs>
     <path id="m1701694730" d="M 0 3 
C 0.795609 3 1.55874 2.683901 2.12132 2.12132 
C 2.683901 1.55874 3 0.795609 3 0 
C 3 -0.795609 2.683901 -1.55874 2.12132 -2.12132 
C 1.55874 -2.683901 0.795609 -3 0 -3 
C -0.795609 -3 -1.55874 -2.683901 -2.12132 -2.12132 
C -2.683901 -1.55874 -3 -0.795609 -3 0 
C -3 0.795609 -2.683901 1.55874 -2.12132 2.12132 
C -1.55874 2.683901 -0.795609 3 0 3 
z
" style="stroke: #008000"/>
    </defs>
    <g clip-path="url(#p9c95611efb)">
     <use xlink:href="#m1701694730" x="202.231759" y="135.515875" style="fill: #008000; stroke: #008000"/>
     <use xlink:href="#m1701694730" x="182.240715" y="155.141317" style="fill: #008000; stroke: #008000"/>
     <use xlink:href="#m1701694730" x="166.734458" y="149.368497" style="fill: #008000; stroke: #008000"/>
     <use xlink:href="#m1701694730" x="154.064922" y="106.433352" style="fill: #008000; stroke: #008000"/>
     <use xlink:href="#m1701694730" x="143.352983" y="147.849211" style="fill: #008000; stroke: #008000"/>
     <use xlink:href="#m1701694730" x="134.073879" y="125.157752" style="fill: #008000; stroke: #008000"/>
     <use xlink:href="#m1701694730" x="125.889129" y="59.943971" style="fill: #008000; stroke: #008000"/>
     <use xlink:href="#m1701694730" x="118.567621" y="125.876878" style="fill: #008000; stroke: #008000"/>
     <use xlink:href="#m1701694730" x="111.944512" y="38.53796" style="fill: #008000; stroke: #008000"/>
     <use xlink:href="#m1701694730" x="105.898086" y="59.417976" style="fill: #008000; stroke: #008000"/>
     <use xlink:href="#m1701694730" x="100.335914" y="88.148752" style="fill: #008000; stroke: #008000"/>
     <use xlink:href="#m1701694730" x="95.186147" y="67.835877" style="fill: #008000; stroke: #008000"/>
     <use xlink:href="#m1701694730" x="90.391828" y="72.673669" style="fill: #008000; stroke: #008000"/>
     <use xlink:href="#m1701694730" x="85.907043" y="91.73105" style="fill: #008000; stroke: #008000"/>
     <use xlink:href="#m1701694730" x="81.694235" y="32.395672" style="fill: #008000; stroke: #008000"/>
     <use xlink:href="#m1701694730" x="77.722293" y="91.425128" style="fill: #008000; stroke: #008000"/>
     <use xlink:href="#m1701694730" x="73.965159" y="90.886516" style="fill: #008000; stroke: #008000"/>
     <use xlink:href="#m1701694730" x="70.400785" y="87.07318" style="fill: #008000; stroke: #008000"/>
     <use xlink:href="#m1701694730" x="67.010354" y="91.626325" style="fill: #008000; stroke: #008000"/>
     <use xlink:href="#m1701694730" x="63.777675" y="73.887613" style="fill: #008000; stroke: #008000"/>
     <use xlink:href="#m1701694730" x="60.68872" y="64.570549" style="fill: #008000; stroke: #008000"/>
     <use xlink:href="#m1701694730" x="57.73125" y="93.642166" style="fill: #008000; stroke: #008000"/>
    </g>
   </g>
   <g id="line2d_44">
    <path d="M 202.231759 138.354081 
L 182.240715 154.789975 
L 166.734458 150.965101 
L 154.064922 113.406905 
L 143.352983 148.38685 
L 134.073879 129.544908 
L 125.889129 115.249598 
L 118.567621 127.386239 
L 111.944512 85.819992 
L 105.898086 106.636063 
L 100.335914 114.885847 
L 95.186147 108.34081 
L 90.391828 107.135629 
L 85.907043 105.262458 
L 81.694235 102.20724 
L 77.722293 116.419898 
L 73.965159 114.514136 
L 70.400785 91.769555 
L 67.010354 112.808809 
L 63.777675 109.482433 
L 60.68872 89.421837 
L 57.73125 100.101171 
" clip-path="url(#p9c95611efb)" style="fill: none; stroke: #004000; stroke-width: 1.5; stroke-linecap: square"/>
    <defs>
     <path id="m20a307a357" d="M 0 3 
C 0.795609 3 1.55874 2.683901 2.12132 2.12132 
C 2.683901 1.55874 3 0.795609 3 0 
C 3 -0.795609 2.683901 -1.55874 2.12132 -2.12132 
C 1.55874 -2.683901 0.795609 -3 0 -3 
C -0.795609 -3 -1.55874 -2.683901 -2.12132 -2.12132 
C -2.683901 -1.55874 -3 -0.795609 -3 0 
C -3 0.795609 -2.683901 1.55874 -2.12132 2.12132 
C -1.55874 2.683901 -0.795609 3 0 3 
z
" style="stroke: #004000"/>
    </defs>
    <g clip-path="url(#p9c95611efb)">
     <use xlink:href="#m20a307a357" x="202.231759" y="138.354081" style="fill: #004000; stroke: #004000"/>
     <use xlink:href="#m20a307a357" x="182.240715" y="154.789975" style="fill: #004000; stroke: #004000"/>
     <use xlink:href="#m20a307a357" x="166.734458" y="150.965101" style="fill: #004000; stroke: #004000"/>
     <use xlink:href="#m20a307a357" x="154.064922" y="113.406905" style="fill: #004000; stroke: #004000"/>
     <use xlink:href="#m20a307a357" x="143.352983" y="148.38685" style="fill: #004000; stroke: #004000"/>
     <use xlink:href="#m20a307a357" x="134.073879" y="129.544908" style="fill: #004000; stroke: #004000"/>
     <use xlink:href="#m20a307a357" x="125.889129" y="115.249598" style="fill: #004000; stroke: #004000"/>
     <use xlink:href="#m20a307a357" x="118.567621" y="127.386239" style="fill: #004000; stroke: #004000"/>
     <use xlink:href="#m20a307a357" x="111.944512" y="85.819992" style="fill: #004000; stroke: #004000"/>
     <use xlink:href="#m20a307a357" x="105.898086" y="106.636063" style="fill: #004000; stroke: #004000"/>
     <use xlink:href="#m20a307a357" x="100.335914" y="114.885847" style="fill: #004000; stroke: #004000"/>
     <use xlink:href="#m20a307a357" x="95.186147" y="108.34081" style="fill: #004000; stroke: #004000"/>
     <use xlink:href="#m20a307a357" x="90.391828" y="107.135629" style="fill: #004000; stroke: #004000"/>
     <use xlink:href="#m20a307a357" x="85.907043" y="105.262458" style="fill: #004000; stroke: #004000"/>
     <use xlink:href="#m20a307a357" x="81.694235" y="102.20724" style="fill: #004000; stroke: #004000"/>
     <use xlink:href="#m20a307a357" x="77.722293" y="116.419898" style="fill: #004000; stroke: #004000"/>
     <use xlink:href="#m20a307a357" x="73.965159" y="114.514136" style="fill: #004000; stroke: #004000"/>
     <use xlink:href="#m20a307a357" x="70.400785" y="91.769555" style="fill: #004000; stroke: #004000"/>
     <use xlink:href="#m20a307a357" x="67.010354" y="112.808809" style="fill: #004000; stroke: #004000"/>
     <use xlink:href="#m20a307a357" x="63.777675" y="109.482433" style="fill: #004000; stroke: #004000"/>
     <use xlink:href="#m20a307a357" x="60.68872" y="89.421837" style="fill: #004000; stroke: #004000"/>
     <use xlink:href="#m20a307a357" x="57.73125" y="100.101171" style="fill: #004000; stroke: #004000"/>
    </g>
   </g>
   <g id="line2d_45">
    <path d="M 308.859892 145.514529 
L 288.868848 128.880039 
L 273.362591 153.603346 
L 260.693055 145.781803 
L 249.981116 144.302192 
L 240.702012 141.319973 
L 232.517262 148.024174 
L 225.195754 146.551488 
L 218.572645 126.336203 
L 212.526219 141.119623 
L 206.964047 135.904059 
L 201.81428 136.600888 
L 197.019961 130.75094 
L 192.535176 140.394111 
L 188.322368 137.267127 
L 184.350426 131.658915 
L 180.593292 128.199118 
L 177.028918 136.629272 
L 173.638487 138.232124 
L 170.405808 130.110419 
L 167.316853 133.704434 
L 164.359383 133.013308 
" clip-path="url(#p9c95611efb)" style="fill: none; stroke: #0000ff; stroke-width: 1.5; stroke-linecap: square"/>
    <defs>
     <path id="m86b20ef979" d="M 0 3 
C 0.795609 3 1.55874 2.683901 2.12132 2.12132 
C 2.683901 1.55874 3 0.795609 3 0 
C 3 -0.795609 2.683901 -1.55874 2.12132 -2.12132 
C 1.55874 -2.683901 0.795609 -3 0 -3 
C -0.795609 -3 -1.55874 -2.683901 -2.12132 -2.12132 
C -2.683901 -1.55874 -3 -0.795609 -3 0 
C -3 0.795609 -2.683901 1.55874 -2.12132 2.12132 
C -1.55874 2.683901 -0.795609 3 0 3 
z
" style="stroke: #0000ff"/>
    </defs>
    <g clip-path="url(#p9c95611efb)">
     <use xlink:href="#m86b20ef979" x="308.859892" y="145.514529" style="fill: #0000ff; stroke: #0000ff"/>
     <use xlink:href="#m86b20ef979" x="288.868848" y="128.880039" style="fill: #0000ff; stroke: #0000ff"/>
     <use xlink:href="#m86b20ef979" x="273.362591" y="153.603346" style="fill: #0000ff; stroke: #0000ff"/>
     <use xlink:href="#m86b20ef979" x="260.693055" y="145.781803" style="fill: #0000ff; stroke: #0000ff"/>
     <use xlink:href="#m86b20ef979" x="249.981116" y="144.302192" style="fill: #0000ff; stroke: #0000ff"/>
     <use xlink:href="#m86b20ef979" x="240.702012" y="141.319973" style="fill: #0000ff; stroke: #0000ff"/>
     <use xlink:href="#m86b20ef979" x="232.517262" y="148.024174" style="fill: #0000ff; stroke: #0000ff"/>
     <use xlink:href="#m86b20ef979" x="225.195754" y="146.551488" style="fill: #0000ff; stroke: #0000ff"/>
     <use xlink:href="#m86b20ef979" x="218.572645" y="126.336203" style="fill: #0000ff; stroke: #0000ff"/>
     <use xlink:href="#m86b20ef979" x="212.526219" y="141.119623" style="fill: #0000ff; stroke: #0000ff"/>
     <use xlink:href="#m86b20ef979" x="206.964047" y="135.904059" style="fill: #0000ff; stroke: #0000ff"/>
     <use xlink:href="#m86b20ef979" x="201.81428" y="136.600888" style="fill: #0000ff; stroke: #0000ff"/>
     <use xlink:href="#m86b20ef979" x="197.019961" y="130.75094" style="fill: #0000ff; stroke: #0000ff"/>
     <use xlink:href="#m86b20ef979" x="192.535176" y="140.394111" style="fill: #0000ff; stroke: #0000ff"/>
     <use xlink:href="#m86b20ef979" x="188.322368" y="137.267127" style="fill: #0000ff; stroke: #0000ff"/>
     <use xlink:href="#m86b20ef979" x="184.350426" y="131.658915" style="fill: #0000ff; stroke: #0000ff"/>
     <use xlink:href="#m86b20ef979" x="180.593292" y="128.199118" style="fill: #0000ff; stroke: #0000ff"/>
     <use xlink:href="#m86b20ef979" x="177.028918" y="136.629272" style="fill: #0000ff; stroke: #0000ff"/>
     <use xlink:href="#m86b20ef979" x="173.638487" y="138.232124" style="fill: #0000ff; stroke: #0000ff"/>
     <use xlink:href="#m86b20ef979" x="170.405808" y="130.110419" style="fill: #0000ff; stroke: #0000ff"/>
     <use xlink:href="#m86b20ef979" x="167.316853" y="133.704434" style="fill: #0000ff; stroke: #0000ff"/>
     <use xlink:href="#m86b20ef979" x="164.359383" y="133.013308" style="fill: #0000ff; stroke: #0000ff"/>
    </g>
   </g>
   <g id="line2d_46">
    <path d="M 308.859892 145.893196 
L 288.868848 128.986332 
L 273.362591 153.919743 
L 260.693055 145.926085 
L 249.981116 144.675622 
L 240.702012 141.782378 
L 232.517262 148.590509 
L 225.195754 146.222839 
L 218.572645 132.511192 
L 212.526219 141.585492 
L 206.964047 140.59507 
L 201.81428 141.026777 
L 197.019961 134.021496 
L 192.535176 143.807446 
L 188.322368 138.727431 
L 184.350426 131.496341 
L 180.593292 133.523272 
L 177.028918 136.917255 
L 173.638487 138.847651 
L 170.405808 133.922475 
L 167.316853 137.483273 
L 164.359383 136.714773 
" clip-path="url(#p9c95611efb)" style="fill: none; stroke: #000080; stroke-width: 1.5; stroke-linecap: square"/>
    <defs>
     <path id="m858df06750" d="M 0 3 
C 0.795609 3 1.55874 2.683901 2.12132 2.12132 
C 2.683901 1.55874 3 0.795609 3 0 
C 3 -0.795609 2.683901 -1.55874 2.12132 -2.12132 
C 1.55874 -2.683901 0.795609 -3 0 -3 
C -0.795609 -3 -1.55874 -2.683901 -2.12132 -2.12132 
C -2.683901 -1.55874 -3 -0.795609 -3 0 
C -3 0.795609 -2.683901 1.55874 -2.12132 2.12132 
C -1.55874 2.683901 -0.795609 3 0 3 
z
" style="stroke: #000080"/>
    </defs>
    <g clip-path="url(#p9c95611efb)">
     <use xlink:href="#m858df06750" x="308.859892" y="145.893196" style="fill: #000080; stroke: #000080"/>
     <use xlink:href="#m858df06750" x="288.868848" y="128.986332" style="fill: #000080; stroke: #000080"/>
     <use xlink:href="#m858df06750" x="273.362591" y="153.919743" style="fill: #000080; stroke: #000080"/>
     <use xlink:href="#m858df06750" x="260.693055" y="145.926085" style="fill: #000080; stroke: #000080"/>
     <use xlink:href="#m858df06750" x="249.981116" y="144.675622" style="fill: #000080; stroke: #000080"/>
     <use xlink:href="#m858df06750" x="240.702012" y="141.782378" style="fill: #000080; stroke: #000080"/>
     <use xlink:href="#m858df06750" x="232.517262" y="148.590509" style="fill: #000080; stroke: #000080"/>
     <use xlink:href="#m858df06750" x="225.195754" y="146.222839" style="fill: #000080; stroke: #000080"/>
     <use xlink:href="#m858df06750" x="218.572645" y="132.511192" style="fill: #000080; stroke: #000080"/>
     <use xlink:href="#m858df06750" x="212.526219" y="141.585492" style="fill: #000080; stroke: #000080"/>
     <use xlink:href="#m858df06750" x="206.964047" y="140.59507" style="fill: #000080; stroke: #000080"/>
     <use xlink:href="#m858df06750" x="201.81428" y="141.026777" style="fill: #000080; stroke: #000080"/>
     <use xlink:href="#m858df06750" x="197.019961" y="134.021496" style="fill: #000080; stroke: #000080"/>
     <use xlink:href="#m858df06750" x="192.535176" y="143.807446" style="fill: #000080; stroke: #000080"/>
     <use xlink:href="#m858df06750" x="188.322368" y="138.727431" style="fill: #000080; stroke: #000080"/>
     <use xlink:href="#m858df06750" x="184.350426" y="131.496341" style="fill: #000080; stroke: #000080"/>
     <use xlink:href="#m858df06750" x="180.593292" y="133.523272" style="fill: #000080; stroke: #000080"/>
     <use xlink:href="#m858df06750" x="177.028918" y="136.917255" style="fill: #000080; stroke: #000080"/>
     <use xlink:href="#m858df06750" x="173.638487" y="138.847651" style="fill: #000080; stroke: #000080"/>
     <use xlink:href="#m858df06750" x="170.405808" y="133.922475" style="fill: #000080; stroke: #000080"/>
     <use xlink:href="#m858df06750" x="167.316853" y="137.483273" style="fill: #000080; stroke: #000080"/>
     <use xlink:href="#m858df06750" x="164.359383" y="136.714773" style="fill: #000080; stroke: #000080"/>
    </g>
   </g>
   <g id="patch_3">
    <path d="M 43.78125 177.319219 
L 43.78125 10.999219 
" style="fill: none; stroke: #000000; stroke-width: 0.8; stroke-linejoin: miter; stroke-linecap: square"/>
   </g>
   <g id="patch_4">
    <path d="M 350.68125 177.319219 
L 350.68125 10.999219 
" style="fill: none; stroke: #000000; stroke-width: 0.8; stroke-linejoin: miter; stroke-linecap: square"/>
   </g>
   <g id="patch_5">
    <path d="M 43.78125 177.319219 
L 350.68125 177.319219 
" style="fill: none; stroke: #000000; stroke-width: 0.8; stroke-linejoin: miter; stroke-linecap: square"/>
   </g>
   <g id="patch_6">
    <path d="M 43.78125 10.999219 
L 350.68125 10.999219 
" style="fill: none; stroke: #000000; stroke-width: 0.8; stroke-linejoin: miter; stroke-linecap: square"/>
   </g>
   <g id="legend_1">
    <g id="patch_7">
     <path d="M 119.025 63.867969 
L 343.68125 63.867969 
Q 345.68125 63.867969 345.68125 61.867969 
L 345.68125 17.999219 
Q 345.68125 15.999219 343.68125 15.999219 
L 119.025 15.999219 
Q 117.025 15.999219 117.025 17.999219 
L 117.025 61.867969 
Q 117.025 63.867969 119.025 63.867969 
z
" style="fill: #ffffff; opacity: 0.8; stroke: #cccccc; stroke-linejoin: miter"/>
    </g>
    <g id="line2d_47">
     <path d="M 121.025 24.097656 
L 131.025 24.097656 
L 141.025 24.097656 
" style="fill: none; stroke: #ff00ff; stroke-width: 1.5; stroke-linecap: square"/>
     <g>
      <use xlink:href="#m0a87114396" x="131.025" y="24.097656" style="fill: #ff00ff; stroke: #ff00ff"/>
     </g>
    </g>
    <g id="text_18">
     <text style="font: 10px 'DejaVu Sans', 'Bitstream Vera Sans', 'Computer Modern Sans Serif', 'Lucida Grande', 'Verdana', 'Geneva', 'Lucid', 'Arial', 'Helvetica', 'Avant Garde', sans-serif; text-anchor: start" x="149.025" y="27.597656" transform="rotate(-0 149.025 27.597656)">MG_0.8, D489</text>
    </g>
    <g id="line2d_48">
     <path d="M 121.025 39.053906 
L 131.025 39.053906 
L 141.025 39.053906 
" style="fill: none; stroke: #800080; stroke-width: 1.5; stroke-linecap: square"/>
     <g>
      <use xlink:href="#m57cece220d" x="131.025" y="39.053906" style="fill: #800080; stroke: #800080"/>
     </g>
    </g>
    <g id="text_19">
     <text style="font: 10px 'DejaVu Sans', 'Bitstream Vera Sans', 'Computer Modern Sans Serif', 'Lucida Grande', 'Verdana', 'Geneva', 'Lucid', 'Arial', 'Helvetica', 'Avant Garde', sans-serif; text-anchor: start" x="149.025" y="42.553906" transform="rotate(-0 149.025 42.553906)">MG_0.8, D580</text>
    </g>
    <g id="line2d_49">
     <path d="M 121.025 54.010156 
L 131.025 54.010156 
L 141.025 54.010156 
" style="fill: none; stroke: #008000; stroke-width: 1.5; stroke-linecap: square"/>
     <g>
      <use xlink:href="#m1701694730" x="131.025" y="54.010156" style="fill: #008000; stroke: #008000"/>
     </g>
    </g>
    <g id="text_20">
     <text style="font: 10px 'DejaVu Sans', 'Bitstream Vera Sans', 'Computer Modern Sans Serif', 'Lucida Grande', 'Verdana', 'Geneva', 'Lucid', 'Arial', 'Helvetica', 'Avant Garde', sans-serif; text-anchor: start" x="149.025" y="57.510156" transform="rotate(-0 149.025 57.510156)">CA_0.8, D489</text>
    </g>
    <g id="line2d_50">
     <path d="M 239.448438 24.097656 
L 249.448438 24.097656 
L 259.448438 24.097656 
" style="fill: none; stroke: #004000; stroke-width: 1.5; stroke-linecap: square"/>
     <g>
      <use xlink:href="#m20a307a357" x="249.448438" y="24.097656" style="fill: #004000; stroke: #004000"/>
     </g>
    </g>
    <g id="text_21">
     <text style="font: 10px 'DejaVu Sans', 'Bitstream Vera Sans', 'Computer Modern Sans Serif', 'Lucida Grande', 'Verdana', 'Geneva', 'Lucid', 'Arial', 'Helvetica', 'Avant Garde', sans-serif; text-anchor: start" x="267.448438" y="27.597656" transform="rotate(-0 267.448438 27.597656)">CA_0.8, D580</text>
    </g>
    <g id="line2d_51">
     <path d="M 239.448438 39.053906 
L 249.448438 39.053906 
L 259.448438 39.053906 
" style="fill: none; stroke: #0000ff; stroke-width: 1.5; stroke-linecap: square"/>
     <g>
      <use xlink:href="#m86b20ef979" x="249.448438" y="39.053906" style="fill: #0000ff; stroke: #0000ff"/>
     </g>
    </g>
    <g id="text_22">
     <text style="font: 10px 'DejaVu Sans', 'Bitstream Vera Sans', 'Computer Modern Sans Serif', 'Lucida Grande', 'Verdana', 'Geneva', 'Lucid', 'Arial', 'Helvetica', 'Avant Garde', sans-serif; text-anchor: start" x="267.448438" y="42.553906" transform="rotate(-0 267.448438 42.553906)">CA_0.85, D489</text>
    </g>
    <g id="line2d_52">
     <path d="M 239.448438 54.010156 
L 249.448438 54.010156 
L 259.448438 54.010156 
" style="fill: none; stroke: #000080; stroke-width: 1.5; stroke-linecap: square"/>
     <g>
      <use xlink:href="#m858df06750" x="249.448438" y="54.010156" style="fill: #000080; stroke: #000080"/>
     </g>
    </g>
    <g id="text_23">
     <text style="font: 10px 'DejaVu Sans', 'Bitstream Vera Sans', 'Computer Modern Sans Serif', 'Lucida Grande', 'Verdana', 'Geneva', 'Lucid', 'Arial', 'Helvetica', 'Avant Garde', sans-serif; text-anchor: start" x="267.448438" y="57.510156" transform="rotate(-0 267.448438 57.510156)">CA_0.85, D580</text>
    </g>
   </g>
  </g>
 </g>
 <defs>
  <clipPath id="p9c95611efb">
   <rect x="43.78125" y="10.999219" width="306.9" height="166.32"/>
  </clipPath>
 </defs>
</svg>
